<?xml version="1.0" encoding="utf-8"?>
<svg viewBox="0 0 60 60" xmlns="http://www.w3.org/2000/svg" xmlns:xlink="http://www.w3.org/1999/xlink"><style>:root>svg{display:none}:root>svg:target{display:block}</style>
<svg fill="none" viewBox="0 -4 64 64" id="account-manager" xmlns="http://www.w3.org/2000/svg">
	<path style="transform:translateX(-1px)" fill="none" stroke="#fff" stroke-linejoin="round" stroke-linecap="round" stroke-miterlimit="4" stroke-width="2.6667" d="M32 56c13.255 0 24-10.745 24-24s-10.745-24-24-24c-13.255 0-24 10.745-24 24s10.745 24 24 24z"></path>
	<path fill="none" stroke="#fff" stroke-linejoin="round" stroke-linecap="round" stroke-miterlimit="4" stroke-width="2.6" d="M24.667 22.632c0.010-1.317 0.41-2.6 1.148-3.69s1.783-1.936 3.002-2.433c1.219-0.497 2.558-0.622 3.848-0.359s2.473 0.902 3.4 1.836c0.927 0.934 1.557 2.122 1.81 3.414s0.118 2.63-0.388 3.845c-0.506 1.215-1.361 2.253-2.456 2.984s-2.382 1.12-3.699 1.12c-0.879-0.002-1.749-0.178-2.56-0.517s-1.548-0.835-2.167-1.459c-0.619-0.624-1.109-1.364-1.442-2.178s-0.502-1.685-0.497-2.564z"></path>
	<path fill="none" stroke="#fff" stroke-linejoin="round" stroke-linecap="round" stroke-miterlimit="4" stroke-width="2.6" d="M18 44.299v-1.667c0.005-1.767 0.709-3.459 1.958-4.708s2.942-1.953 4.708-1.958h13.333c1.767 0.005 3.459 0.709 4.708 1.958s1.953 2.942 1.958 4.708v1.667c-0.001 0.442-0.177 0.865-0.49 1.177s-0.736 0.488-1.177 0.49h-23.333c-0.442-0.001-0.865-0.177-1.177-0.49s-0.488-0.735-0.49-1.177v0z"></path>
</svg>
<svg fill="none" viewBox="0 -3 64 64" id="admin-tools" xmlns="http://www.w3.org/2000/svg">
	<path fill="none" stroke="#fff" stroke-linejoin="round" stroke-linecap="round" stroke-miterlimit="4" stroke-width="2.6" d="M43.147 49.933c1.341 1.341 3.52 1.341 4.861 0l1.925-1.925c1.341-1.341 1.341-3.52 0-4.861-1.019-1.019-1.317-2.547-0.757-3.875 0.059-0.141 0.117-0.283 0.173-0.427 0.488-1.243 1.699-2.043 3.032-2.043h0.179c1.899 0 3.437-1.539 3.437-3.437v-2.723c0-1.899-1.539-3.437-3.437-3.437h-0.179c-1.333 0-2.544-0.803-3.032-2.043-0.056-0.144-0.115-0.285-0.173-0.427-0.56-1.328-0.261-2.856 0.757-3.875 1.341-1.341 1.341-3.52 0-4.861l-1.925-1.925c-1.341-1.341-3.52-1.341-4.861 0-1.019 1.019-2.547 1.317-3.875 0.757-0.141-0.059-0.283-0.117-0.427-0.173-1.243-0.496-2.045-1.709-2.045-3.043v-0.179c0-1.899-1.539-3.437-3.437-3.437h-2.723c-1.901 0-3.44 1.539-3.44 3.437v0.179c0 1.333-0.803 2.544-2.043 3.032-0.144 0.059-0.285 0.115-0.427 0.176-1.328 0.56-2.856 0.261-3.875-0.757-1.341-1.341-3.52-1.341-4.861 0l-1.928 1.925c-1.341 1.341-1.341 3.52 0 4.861 1.019 1.019 1.317 2.547 0.757 3.875-0.061 0.144-0.117 0.285-0.173 0.429-0.488 1.24-1.701 2.043-3.035 2.043h-0.179c-1.899 0-3.437 1.539-3.437 3.437v2.723c0 1.901 1.539 3.44 3.437 3.44h0.179c1.333 0 2.544 0.803 3.032 2.043 0.056 0.144 0.115 0.285 0.173 0.427 0.56 1.328 0.261 2.856-0.757 3.875-1.341 1.341-1.341 3.52 0 4.861l1.925 1.925c1.341 1.341 3.52 1.341 4.861 0 1.019-1.019 2.547-1.317 3.875-0.757 0.141 0.059 0.283 0.117 0.427 0.173 1.243 0.488 2.043 1.699 2.043 3.032v0.179c0 1.899 1.539 3.437 3.437 3.437h2.723c1.899 0 3.437-1.539 3.437-3.437v-0.179c0-1.333 0.803-2.544 2.043-3.032 0.144-0.056 0.285-0.115 0.427-0.173 1.336-0.557 2.864-0.259 3.885 0.76v0z"></path>
	<path fill="none" stroke="#fff" stroke-linejoin="round" stroke-linecap="round" stroke-miterlimit="4" stroke-width="2.6" d="M37.657 26.343c3.124 3.124 3.124 8.189 0 11.314s-8.189 3.124-11.314 0c-3.124-3.124-3.124-8.189 0-11.314s8.189-3.124 11.314 0z"></path>
</svg>
<svg fill="none" viewBox="0 0 48 48" id="advanced-features" xmlns="http://www.w3.org/2000/svg">
	<path fill="none" stroke="#fff" stroke-linejoin="round" stroke-linecap="round" stroke-miterlimit="4" stroke-width="2" d="M29.381 31.62h-10.76"></path>
	<path fill="none" stroke="#fff" stroke-linejoin="round" stroke-linecap="round" stroke-miterlimit="4" stroke-width="2" d="M18.14 31.12c-4.6-3.24-5.7-9.58-2.46-14.18 3.22-4.6 9.56-5.7 14.16-2.46 4.58 3.22 5.68 9.56 2.44 14.16-0.68 0.94-1.5 1.76-2.46 2.44v-0.020c-0.48 0.3-0.78 0.84-0.78 1.4v4.68c0 2.32-1.9 4.22-4.24 4.22-0.020 0-0.020-0.020-0.020-0.020h-1.7v-0.002c-2.34 0-4.24-1.9-4.24-4.24-0.020-0.020-0.020-0.020-0.020-0.020v-4.7l-0.020-0.020c-0.020-0.58-0.32-1.12-0.78-1.44l0.12 0.202z"></path>
	<path fill="none" stroke="#fff" stroke-linejoin="round" stroke-linecap="round" stroke-miterlimit="4" stroke-width="2" d="M36.72 10.74l-1.26 1.28"></path>
	<path fill="none" stroke="#fff" stroke-linejoin="round" stroke-linecap="round" stroke-miterlimit="4" stroke-width="2" d="M12.54 34.92l-1.26 1.28"></path>
	<path fill="none" stroke="#fff" stroke-linejoin="round" stroke-linecap="round" stroke-miterlimit="4" stroke-width="2" d="M41.999 23.48h-1.8"></path>
	<path fill="none" stroke="#fff" stroke-linejoin="round" stroke-linecap="round" stroke-miterlimit="4" stroke-width="2" d="M7.8 23.48h-1.8"></path>
	<path fill="none" stroke="#fff" stroke-linejoin="round" stroke-linecap="round" stroke-miterlimit="4" stroke-width="2" d="M36.72 36.2l-1.26-1.28"></path>
	<path fill="none" stroke="#fff" stroke-linejoin="round" stroke-linecap="round" stroke-miterlimit="4" stroke-width="2" d="M12.54 12.020l-1.26-1.28"></path>
	<path fill="none" stroke="#fff" stroke-linejoin="round" stroke-linecap="round" stroke-miterlimit="4" stroke-width="2" d="M24 7.28v-1.8"></path>
</svg>
<svg fill="none" viewBox="0 0 48 48" id="email-manager" xmlns="http://www.w3.org/2000/svg">
	<path fill="none" stroke="#fff" stroke-linejoin="round" stroke-linecap="round" stroke-miterlimit="4" stroke-width="2" d="M40.432 17.545l-14-10.721c-0.698-0.535-1.553-0.824-2.432-0.824s-1.734 0.29-2.432 0.824l-14 10.721c-0.488 0.373-0.883 0.854-1.155 1.405s-0.413 1.157-0.413 1.771v17.279c0 1.061 0.421 2.078 1.172 2.828s1.768 1.172 2.828 1.172h28c1.061 0 2.078-0.421 2.828-1.172s1.172-1.768 1.172-2.828v-17.279c0-0.614-0.141-1.22-0.413-1.771s-0.667-1.031-1.155-1.405z"></path>
	<path fill="none" stroke="#fff" stroke-linejoin="round" stroke-linecap="round" stroke-miterlimit="4" stroke-width="2" d="M6.375 19.033l15.193 11.634c0.698 0.534 1.553 0.824 2.432 0.824s1.734-0.29 2.432-0.824l15.196-11.637"></path>
	<path fill="none" stroke="#fff" stroke-linejoin="round" stroke-linecap="round" stroke-miterlimit="4" stroke-width="2" d="M27 18.5l-4 3-2-1.5"></path>
</svg>
<svg fill="none" viewBox="0 0 64 64" id="extra-features" xmlns="http://www.w3.org/2000/svg">
	<path fill="none" stroke="#fff" stroke-linejoin="round" stroke-linecap="round" stroke-miterlimit="4" stroke-width="2.6" d="M56 41.784v8.587"></path>
	<path fill="none" stroke="#fff" stroke-linejoin="round" stroke-linecap="round" stroke-miterlimit="4" stroke-width="2.6" d="M55.998 19.406v8.587h0.003c-1.244-0.251-2.532-0.167-3.733 0.243v0c-2.232 0.763-3.925 2.605-4.499 4.893v0c-0.965 3.773 1.312 7.613 5.085 8.578 0.568 0.145 1.152 0.219 1.739 0.22v0c0.473-0.001 0.944-0.048 1.408-0.141v8.587c0 3.109-2.52 5.629-5.629 5.629-0 0-0.001 0-0.001 0l-8.587 0.003c0.251-1.244 0.167-2.532-0.243-3.733v0c-0.763-2.232-2.605-3.926-4.893-4.499v0c-3.773-0.965-7.613 1.312-8.578 5.085-0.145 0.568-0.219 1.152-0.22 1.739v0c0.001 0.473 0.048 0.944 0.141 1.408l-8.584-0.003c-3.108 0.001-5.628-2.518-5.629-5.627v-8.587c-0.464 0.093-0.935 0.141-1.408 0.141v0c-3.894-0.004-7.048-3.164-7.044-7.059 0.001-0.586 0.074-1.171 0.22-1.739v0c0.573-2.288 2.267-4.13 4.499-4.893v0c1.201-0.41 2.489-0.494 3.733-0.243h-0.003v-8.587c0-3.109 2.52-5.629 5.629-5.629 0 0 0.001 0 0.001 0h8.587c-0.093-0.464-0.14-0.935-0.141-1.408v0c0.004-3.894 3.164-7.048 7.058-7.044 0.586 0.001 1.17 0.074 1.738 0.22v0c2.287 0.575 4.129 2.268 4.893 4.499v0c0.41 1.201 0.494 2.489 0.243 3.733h8.587c3.109-0 5.629 2.519 5.63 5.628 0 0 0 0.001 0 0.001"></path>
</svg>
<svg viewBox="0 0 60 60" fill="#FFF" id="reseller-tools" xmlns="http://www.w3.org/2000/svg">
	<path d="M56.99 13.5H55v-3H45v3h-4V7.706A3.21 3.21 0 0037.794 4.5H22.206A3.21 3.21 0 0019 7.706V13.5h-4v-3H5v3H3.01A3.014 3.014 0 000 16.51v35.98a3.014 3.014 0 003.01 3.01h53.98A3.014 3.014 0 0060 52.49V16.51a3.014 3.014 0 00-3.01-3.01zm-9.99-1h6v1h-6v-1zM21 7.706c0-.665.541-1.206 1.206-1.206h15.588c.665 0 1.206.541 1.206 1.206V13.5H21V7.706zM19 15.5h31v38H10v-38h9zm-12-3h6v1H7v-1zM2 52.49V16.51c0-.557.453-1.01 1.01-1.01H8v38H3.01c-.557 0-1.01-.453-1.01-1.01zm56 0c0 .557-.453 1.01-1.01 1.01H52v-38h4.99c.557 0 1.01.453 1.01 1.01v35.98z"/>
</svg>
<svg fill="none" viewBox="6 0 40 40" id="server-manager" xmlns="http://www.w3.org/2000/svg">
	<path fill="#fff" d="M13.202 8.999c-2.093 0-3.168 1.092-3.689 2.135s-0.514 2.068-0.514 2.068v2.396s-0.008 1.025 0.514 2.068c0.522 1.043 1.592 2.135 3.689 2.135v-1.201c-1.509 0-2.239-0.714-2.618-1.47s-0.385-1.533-0.385-1.533v-2.396s0.007-0.776 0.385-1.532c0.378-0.757 1.104-1.471 2.618-1.471h21.597c1.506 0 2.235 0.714 2.613 1.471s0.39 1.532 0.39 1.532v2.396s-0.011 0.776-0.39 1.532c-0.378 0.757-1.092 1.471-2.613 1.471v1.2c2.088 0 3.168-1.092 3.689-2.135s0.514-2.068 0.514-2.068v-2.396s0.008-1.025-0.514-2.068c-0.522-1.043-1.598-2.135-3.69-2.135z"></path>
	<path fill="#fff" d="M13.202 18.601c-2.091 0-3.168 1.087-3.689 2.131s-0.514 2.068-0.514 2.068v2.401s-0.008 1.025 0.514 2.068c0.522 1.043 1.601 2.131 3.689 2.131h21.597c2.087 0 3.168-1.087 3.689-2.131s0.514-2.068 0.514-2.068v-2.401s0.008-1.025-0.514-2.068c-0.522-1.043-1.603-2.131-3.69-2.131zM13.202 19.802h21.597c1.522 0 2.235 0.709 2.613 1.466s0.39 1.533 0.39 1.533v2.401s-0.011 0.776-0.39 1.532c-0.378 0.757-1.093 1.466-2.613 1.466l-21.597 0c-1.508 0-2.239-0.709-2.617-1.466s-0.385-1.533-0.385-1.533v-2.401s0.007-0.776 0.385-1.532c0.378-0.757 1.1-1.466 2.617-1.466z"></path>
	<path fill="#fff" d="M26.998 21.6c-1.318 0-2.401 1.082-2.401 2.401s1.082 2.401 2.401 2.401h6.002c1.318 0 2.401-1.082 2.401-2.401s-1.082-2.401-2.401-2.401zM26.998 22.8h6.002c0.67 0 1.2 0.53 1.2 1.2s-0.53 1.2-1.2 1.2h-6.002c-0.67 0-1.2-0.53-1.2-1.2s0.53-1.2 1.2-1.2z"></path>
	<path fill="#fff" d="M26.998 11.999c-1.318 0-2.401 1.082-2.401 2.401s1.082 2.401 2.401 2.401h6.002c1.318 0 2.401-1.082 2.401-2.401s-1.082-2.401-2.401-2.401zM26.998 13.199h6.002c0.67 0 1.2 0.53 1.2 1.2s-0.53 1.2-1.2 1.2h-6.002c-0.67 0-1.2-0.53-1.2-1.2s0.53-1.2 1.2-1.2z"></path>
	<path fill="#fff" d="M26.998 31.198c-1.318 0-2.401 1.082-2.401 2.401s1.082 2.401 2.401 2.401h6.002c1.318 0 2.401-1.082 2.401-2.401s-1.082-2.401-2.401-2.401zM26.998 32.399h6.002c0.67 0 1.2 0.53 1.2 1.2s-0.53 1.2-1.2 1.2h-6.002c-0.67 0-1.2-0.53-1.2-1.2s0.53-1.2 1.2-1.2z"></path>
	<path fill="#fff" d="M13.202 39.001c-2.093 0-3.168-1.092-3.689-2.135s-0.514-2.068-0.514-2.068v-2.396s-0.008-1.025 0.514-2.068c0.522-1.043 1.592-2.135 3.689-2.135v1.2c-1.509 0-2.239 0.714-2.618 1.471s-0.385 1.532-0.385 1.532v2.396s0.007 0.776 0.385 1.532c0.378 0.757 1.104 1.471 2.618 1.471h21.597c1.506 0 2.235-0.714 2.613-1.471s0.39-1.532 0.39-1.532v-2.396s-0.011-0.776-0.39-1.532c-0.378-0.757-1.092-1.471-2.613-1.471v-1.2c2.088 0 3.168 1.092 3.689 2.135s0.514 2.068 0.514 2.068v2.396s0.008 1.025-0.514 2.068c-0.522 1.043-1.598 2.135-3.689 2.135z"></path>
</svg>
<svg fill="none" viewBox="0 0 64 64" id="support-help" xmlns="http://www.w3.org/2000/svg">
	<path fill="none" stroke="#fff" stroke-linejoin="round" stroke-linecap="round" stroke-miterlimit="4" stroke-width="2.6" d="M38.133 20.203v0c2.465 1.233 4.462 3.234 5.691 5.701v0c3.381 6.534 0.825 14.571-5.709 17.951-5.702 2.951-12.698 1.414-16.638-3.655v0c-3.152-4.116-3.662-9.675-1.312-14.296v0c1.231-2.469 3.233-4.47 5.701-5.701v0c0.661-0.326 1.46-0.054 1.785 0.607 0.093 0.188 0.14 0.395 0.137 0.604v10.587h8.432v-10.587c-0.005-0.736 0.588-1.338 1.324-1.343 0.204-0.001 0.405 0.044 0.588 0.132v0z"></path>
	<path fill="none" stroke="#fff" stroke-linejoin="round" stroke-linecap="round" stroke-miterlimit="4" stroke-width="2.6" d="M32 56c13.255 0 24-10.745 24-24s-10.745-24-24-24c-13.255 0-24 10.745-24 24s10.745 24 24 24z"></path>
	<path fill="none" stroke="#fff" stroke-linejoin="round" stroke-linecap="round" stroke-miterlimit="4" stroke-width="2.6" d="M25.333 43.547v11.52"></path>
	<path fill="none" stroke="#fff" stroke-linejoin="round" stroke-linecap="round" stroke-miterlimit="4" stroke-width="2.6" d="M38.667 43.547v11.52"></path>
</svg>
<svg fill="none" viewBox="0 0 64 64" id="system-information" xmlns="http://www.w3.org/2000/svg">
	<path fill="none" stroke="#fff" stroke-linejoin="round" stroke-linecap="round" stroke-miterlimit="4" stroke-width="2" d="M16 29.333h16"></path>
	<path fill="none" stroke="#fff" stroke-linejoin="round" stroke-linecap="round" stroke-miterlimit="4" stroke-width="2" d="M16 21.333h8"></path>
	<path fill="none" stroke="#fff" stroke-linejoin="round" stroke-linecap="round" stroke-miterlimit="4" stroke-width="2" d="M20 45.333l-0.027-0.003c-2.213-0.027-4-1.813-4-4h-0.027c0-2.213 1.787-4 3.973-4.027l-0.027-0.003c2.187 0 3.973 1.787 4 3.973v-0.027c-0.027 2.187-1.813 3.973-4 4l0.107 0.085z"></path>
	<path fill="none" stroke="#fff" stroke-linejoin="round" stroke-linecap="round" stroke-miterlimit="4" stroke-width="2" d="M33.332 46h6.667v10h-6.693c-0.747-0.027-1.333-0.613-1.333-1.36v-7.333c-0.027-0.747 0.587-1.36 1.307-1.36l0.053 0.053z"></path>
	<path fill="none" stroke="#fff" stroke-linejoin="round" stroke-linecap="round" stroke-miterlimit="4" stroke-width="2" d="M41.332 34.667h5.307c0.72-0.027 1.333 0.587 1.333 1.307v20h-8v-20c-0.027-0.747 0.587-1.36 1.307-1.36l0.053 0.053z"></path>
	<path fill="none" stroke="#fff" stroke-linejoin="round" stroke-linecap="round" stroke-miterlimit="4" stroke-width="2" d="M49.332 40.667h5.307c0.72-0.027 1.333 0.587 1.333 1.307v12.667c0 0.72-0.613 1.333-1.333 1.333h-6.667v-14c-0.027-0.747 0.587-1.36 1.307-1.36l0.053 0.053z"></path>
	<path fill="none" stroke="#fff" stroke-linejoin="round" stroke-linecap="round" stroke-miterlimit="4" stroke-width="2" d="M24 56l-10.693-0.003c-2.96-0.027-5.333-2.4-5.333-5.36v-37.333c-0.027-2.96 2.373-5.36 5.307-5.36h21.76c1.413-0.027 2.747 0.56 3.76 1.547l7.52 7.52c0.987 0.987 1.547 2.347 1.547 3.76v5.787"></path>
</svg>
</svg>