<?xml version="1.0" encoding="utf-8"?><svg viewBox="0 0 60 60" xmlns="http://www.w3.org/2000/svg" xmlns:xlink="http://www.w3.org/1999/xlink"><style>:root>svg{display:none}:root>svg:target{display:block}</style><svg fill="none" viewBox="0 0 50 50" id="account-manager" xmlns="http://www.w3.org/2000/svg"><mask id="aa" fill="#fff"><path fill-rule="evenodd" clip-rule="evenodd" d="M25.01 23.952c5.41 0 9.795-4.386 9.795-9.796 0-5.41-4.386-9.795-9.796-9.795-5.41 0-9.795 4.386-9.795 9.796 0 5.41 4.385 9.795 9.795 9.795zm-.003 21.7c-9.781 0-17.71-2.43-17.71-7.459s7.929-10.753 17.71-10.753 17.711 5.724 17.711 10.753c0 5.03-7.93 7.459-17.711 7.459z"/></mask><path d="M25.007 27.44v4.585-4.585zm5.213-13.284a5.21 5.21 0 01-5.21 5.211v9.17c7.941 0 14.38-6.438 14.38-14.38h-9.17zm-5.21-5.21a5.21 5.21 0 015.21 5.21h9.17c0-7.942-6.439-14.38-14.38-14.38v9.17zm-5.211 5.21a5.21 5.21 0 015.21-5.21v-9.17c-7.942 0-14.38 6.438-14.38 14.38h9.17zm5.21 5.211a5.21 5.21 0 01-5.21-5.21h-9.17c0 7.942 6.438 14.38 14.38 14.38v-9.17zM2.712 38.193c0 5.47 4.404 8.46 8.122 9.893 3.94 1.52 8.997 2.15 14.173 2.15v-9.169c-4.605 0-8.404-.584-10.873-1.536-1.23-.474-1.863-.939-2.135-1.223-.12-.126-.14-.183-.131-.164.012.028.014.058.014.05h-9.17zm22.295-15.338c-5.75 0-11.041 1.674-15.002 4.219-3.706 2.382-7.293 6.278-7.293 11.12h9.17c0-.189.378-1.669 3.08-3.406 2.45-1.574 6.014-2.763 10.045-2.763v-9.17zm22.296 15.338c0-4.841-3.587-8.737-7.294-11.12-3.96-2.544-9.252-4.218-15.002-4.218v9.17c4.03 0 7.595 1.189 10.045 2.763 2.703 1.737 3.081 3.218 3.081 3.405h9.17zM25.007 50.237c5.176 0 10.232-.63 14.173-2.15 3.719-1.435 8.123-4.424 8.123-9.894h-9.17c0 .009.002-.02.014-.05.009-.018-.01.04-.13.165-.274.284-.907.749-2.136 1.223-2.47.952-6.269 1.536-10.874 1.536v9.17z" fill="#fff" mask="url(#aa)"/></svg><svg fill="none" viewBox="0 0 50 50" id="admin-tools" xmlns="http://www.w3.org/2000/svg"><path clip-rule="evenodd" d="M18.7 44.463c.02.512-.139 1.004-.35 1.406-.45.806-1.324 1.253-2.315 1.274l-1.81-.025c-.964-.01-1.87-.529-2.34-1.323a2.646 2.646 0 01-.366-1.376c.019-.398-.113-.772-.325-1.13-.656-1.108-2.137-1.512-3.269-.92-1.29.727-2.91.267-3.672-1.02l-.901-1.522c-.769-1.299-.368-2.897.923-3.624a2.359 2.359 0 00.825-3.21c-.219-.37-.485-.667-.841-.84a2.77 2.77 0 01-1.04-.996 2.64 2.64 0 01-.01-2.65l.89-1.53c.484-.826 1.346-1.341 2.288-1.32.442-.01.978.136 1.417.397.342.225.72.28 1.135.3 1.297.016 2.367-1.034 2.377-2.308-.016-1.468 1.198-2.63 2.687-2.617l1.768.003c1.496.024 2.71 1.19 2.722 2.676.037 1.277 1.145 2.34 2.437 2.373.42.002.817-.087 1.14-.3.425-.268.913-.38 1.376-.356a2.86 2.86 0 012.34 1.323l.934 1.578c.49.828.463 1.844.012 2.65a2.28 2.28 0 01-1.011.972c-.35.167-.628.458-.836.814-.617 1.108-.227 2.575.895 3.256 1.307.741 1.742 2.362 1.008 3.625l-.881 1.496c-.727 1.275-2.365 1.72-3.668.961-1.135-.629-2.603-.25-3.23.865-.198.35-.337.696-.308 1.098zm-5.557-13.359c-1.763.993-2.325 3.204-1.285 4.961a3.714 3.714 0 005.028 1.362c1.763-.992 2.356-3.177 1.316-4.934-1.04-1.757-3.296-2.381-5.059-1.389zM40.19 22.053c.015.426-.115.836-.289 1.171-.371.672-1.09 1.044-1.906 1.062l-1.491-.02a2.28 2.28 0 01-1.927-1.104 2.226 2.226 0 01-.301-1.146c.015-.332-.093-.644-.268-.942-.54-.923-1.76-1.26-2.692-.767-1.063.606-2.397.223-3.024-.85l-.743-1.268c-.632-1.082-.302-2.414.761-3.02.905-.54 1.22-1.752.68-2.675-.18-.308-.4-.556-.693-.7a2.292 2.292 0 01-.856-.83 2.223 2.223 0 01-.01-2.208l.733-1.276c.4-.687 1.11-1.117 1.885-1.098.365-.01.806.112 1.167.33.282.187.593.233.935.25a1.946 1.946 0 001.957-1.924c-.013-1.223.987-2.19 2.213-2.18l1.457.002c1.231.02 2.232.992 2.24 2.23.032 1.064.944 1.95 2.008 1.977.346.002.673-.072.94-.249.349-.224.75-.316 1.132-.297.775.018 1.51.432 1.927 1.102l.77 1.315c.403.69.38 1.537.009 2.208-.18.326-.456.633-.833.81-.288.14-.516.382-.688.679-.508.923-.187 2.146.737 2.713a2.21 2.21 0 01.83 3.021l-.726 1.247a2.18 2.18 0 01-3.02.801c-.935-.524-2.144-.208-2.66.72-.163.292-.277.58-.254.916zM35.613 10.92c-1.451.827-1.914 2.67-1.058 4.135.857 1.464 2.689 1.962 4.14 1.134 1.452-.827 1.94-2.647 1.084-4.111-.856-1.464-2.714-1.985-4.166-1.158z" stroke="#fff" stroke-width="3"/></svg><svg fill="none" viewBox="0 0 50 50" id="advanced-features" xmlns="http://www.w3.org/2000/svg"><path fill-rule="evenodd" clip-rule="evenodd" d="M30.487 3.965c-.654-.153-1.325-.153-2.077-.152H16.8a9.56 9.56 0 00-9.561 9.56V36.64a9.56 9.56 0 009.56 9.56H26c1.051 0 1.903-.85 1.903-1.901v-.1c0-1.05-.852-1.902-1.902-1.902h-9.2a5.656 5.656 0 01-5.657-5.657V13.374A5.656 5.656 0 0116.8 7.717h11.45c1 0 1.188.012 1.345.05.178.041.348.109.506.2.14.081.285.201 1.012.886l6.446 6.075c.788.743.928.893 1.021 1.04l.085-.053-.085.054c.106.166.184.347.233.538.043.17.057.374.057 1.458v8.015c0 1.05.851 1.902 1.902 1.902h.1c1.05 0 1.902-.851 1.902-1.902v-8.189c.001-.814.002-1.541-.177-2.245a5.758 5.758 0 00-.722-1.673l-.084.054.084-.054c-.39-.612-.919-1.11-1.513-1.668l-.12-.113-.006-.006-6.446-6.074-.006-.006-.11-.104c-.546-.516-1.034-.976-1.616-1.313l-.05.086.05-.086a5.757 5.757 0 00-1.57-.624zM18 16.098a1.902 1.902 0 000 3.804h2a1.902 1.902 0 100-3.804h-2zM23.902 26c0 1.05-.852 1.902-1.902 1.902h-4a1.902 1.902 0 010-3.804h4c1.05 0 1.902.852 1.902 1.902zM24 35.902a1.902 1.902 0 100-3.804h-6a1.902 1.902 0 000 3.804h6z" fill="#fff"/><path fill-rule="evenodd" clip-rule="evenodd" d="M39.09 44.124c.013.358-.097.703-.245.984-.316.565-.927.878-1.62.892l-1.268-.017a1.942 1.942 0 01-1.638-.927 1.852 1.852 0 01-.256-.963c.013-.279-.079-.54-.227-.79-.46-.776-1.496-1.06-2.288-.645-.904.51-2.038.187-2.571-.714l-.631-1.066c-.538-.908-.257-2.027.646-2.536a1.651 1.651 0 00.578-2.247c-.153-.259-.34-.467-.59-.588a1.94 1.94 0 01-.727-.697 1.848 1.848 0 01-.008-1.855l.624-1.072c.339-.577.943-.938 1.601-.922.31-.008.685.094.992.277.24.157.504.196.795.21a1.645 1.645 0 001.664-1.616c-.011-1.028.838-1.84 1.88-1.832l1.239.003c1.047.016 1.897.832 1.905 1.872.026.895.801 1.638 1.706 1.661.294.002.572-.06.798-.209.297-.188.64-.266.963-.25a2.001 2.001 0 011.638.927l.654 1.104c.343.58.324 1.29.008 1.855a1.595 1.595 0 01-.708.68c-.245.118-.439.32-.585.57-.431.776-.159 1.803.627 2.28a1.845 1.845 0 01.705 2.537l-.616 1.047a1.864 1.864 0 01-2.568.673c-.795-.44-1.822-.175-2.261.605-.138.245-.235.488-.216.77zm-3.89-9.351c-1.234.695-1.627 2.243-.9 3.473a2.6 2.6 0 003.52.953 2.476 2.476 0 00.921-3.454c-.728-1.23-2.307-1.667-3.541-.972z" fill="#fff"/></svg><svg fill="none" viewBox="0 0 50 50" id="email-manager" xmlns="http://www.w3.org/2000/svg"><mask id="da" fill="#fff"><path d="M4.166 16.09a9.614 9.614 0 019.614-9.614h22.453a9.614 9.614 0 019.614 9.614v17.833a9.614 9.614 0 01-9.614 9.615H13.78a9.614 9.614 0 01-9.614-9.615V16.09z"/></mask><path d="M13.78 10.597h22.453V2.356H13.78v8.24zm27.947 5.493v17.833h8.24V16.09h-8.24zm-5.494 23.327H13.78v8.241h22.453v-8.24zM8.286 33.923V16.09H.046v17.833h8.24zm5.494 5.494a5.494 5.494 0 01-5.494-5.494H.046c0 7.586 6.149 13.735 13.734 13.735v-8.24zm27.947-5.494a5.494 5.494 0 01-5.494 5.494v8.241c7.585 0 13.734-6.15 13.734-13.735h-8.24zm-5.494-23.327a5.494 5.494 0 015.494 5.494h8.24c0-7.585-6.149-13.734-13.734-13.734v8.24zM13.78 2.356C6.195 2.356.046 8.505.046 16.09h8.24a5.494 5.494 0 015.494-5.493V2.356z" fill="#fff" mask="url(#da)"/><path d="M12.754 16.316c-.933-.457-2.021.017-2.43 1.06-.41 1.041.015 2.256.948 2.713l12.99 6.364.028.014a1.673 1.673 0 001.464-.014l12.99-6.364c.932-.457 1.357-1.672.948-2.714-.41-1.042-1.497-1.516-2.43-1.06l-11.046 5.412a2.747 2.747 0 01-2.417 0l-11.045-5.411z" fill="#fff"/></svg><svg fill="none" viewBox="0 0 50 50" id="extra-features" xmlns="http://www.w3.org/2000/svg"><path d="M25 9v32M9 25h32" stroke="#FFF" stroke-width="5" stroke-linecap="round"/></svg><svg viewBox="0 0 60 60" fill="#FFF" id="reseller-tools" xmlns="http://www.w3.org/2000/svg"><path d="M56.99 13.5H55v-3H45v3h-4V7.706A3.21 3.21 0 0037.794 4.5H22.206A3.21 3.21 0 0019 7.706V13.5h-4v-3H5v3H3.01A3.014 3.014 0 000 16.51v35.98a3.014 3.014 0 003.01 3.01h53.98A3.014 3.014 0 0060 52.49V16.51a3.014 3.014 0 00-3.01-3.01zm-9.99-1h6v1h-6v-1zM21 7.706c0-.665.541-1.206 1.206-1.206h15.588c.665 0 1.206.541 1.206 1.206V13.5H21V7.706zM19 15.5h31v38H10v-38h9zm-12-3h6v1H7v-1zM2 52.49V16.51c0-.557.453-1.01 1.01-1.01H8v38H3.01c-.557 0-1.01-.453-1.01-1.01zm56 0c0 .557-.453 1.01-1.01 1.01H52v-38h4.99c.557 0 1.01.453 1.01 1.01v35.98z"/></svg><svg fill="none" viewBox="0 0 50 50" id="server-manager" xmlns="http://www.w3.org/2000/svg"><rect x="5.5" y="6.5" width="39" height="8" rx="4" stroke="#fff" stroke-width="3"/><rect x="5.5" y="20.5" width="39" height="8" rx="4" stroke="#fff" stroke-width="3"/><rect x="5.5" y="34.5" width="39" height="8" rx="4" stroke="#fff" stroke-width="3"/><path d="M14 11c0 .553-.447 1-1 1-.553 0-1-.447-1-1 0-.553.447-1 1-1 .553 0 1 .447 1 1zM14 25c0 .553-.447 1-1 1-.553 0-1-.447-1-1 0-.553.447-1 1-1 .553 0 1 .447 1 1zM14 39c0 .553-.447 1-1 1-.553 0-1-.447-1-1 0-.553.447-1 1-1 .553 0 1 .447 1 1zM19 11c0 .553-.447 1-1 1-.553 0-1-.447-1-1 0-.553.447-1 1-1 .553 0 1 .447 1 1zM19 25c0 .553-.447 1-1 1-.553 0-1-.447-1-1 0-.553.447-1 1-1 .553 0 1 .447 1 1zM19 39c0 .553-.447 1-1 1-.553 0-1-.447-1-1 0-.553.447-1 1-1 .553 0 1 .447 1 1z" fill="#fff"/><path d="M36 16v3M36 30v3M14 16v3M14 30v3" stroke="#fff" stroke-width="2"/></svg><svg fill="none" viewBox="0 0 50 50" id="support-help" xmlns="http://www.w3.org/2000/svg"><path fill-rule="evenodd" clip-rule="evenodd" d="M15.154 8.287h19.705a6.867 6.867 0 016.868 6.867v19.705a6.867 6.867 0 01-6.868 6.868H15.154a6.867 6.867 0 01-6.868-6.868V15.154a6.867 6.867 0 016.868-6.867zM4.166 15.154c0-6.068 4.92-10.988 10.988-10.988h19.705c6.069 0 10.988 4.92 10.988 10.988v19.705c0 6.069-4.92 10.988-10.988 10.988H15.154c-6.069 0-10.988-4.92-10.988-10.988V15.154zm18.483 18.695a2.36 2.36 0 114.72 0 2.36 2.36 0 01-4.72 0zm2.358-4.505a2.402 2.402 0 01-2.402-2.402V16.208a2.402 2.402 0 114.804 0v10.734a2.402 2.402 0 01-2.402 2.402z" fill="#FFF"/></svg><svg fill="none" viewBox="0 0 50 50" id="system-information" xmlns="http://www.w3.org/2000/svg"><path fill-rule="evenodd" clip-rule="evenodd" d="M13.498 9.467c.597-.114 1.356-.122 3.4-.122 2.045 0 2.804.008 3.4.122a6.871 6.871 0 014.302 2.757l.03.042c.234.327.46.645.665.894.202.245.533.62 1.022.871.447.23.882.296 1.209.323.29.024.626.024.938.023h.485c2.971 0 5.065.002 6.687.16 1.594.155 2.534.447 3.254.902a6.875 6.875 0 012.143 2.143c.455.72.746 1.66.902 3.254.157 1.622.16 3.716.16 6.687s-.002 5.065-.16 6.688c-.156 1.593-.447 2.533-.902 3.253a6.873 6.873 0 01-2.143 2.144c-.72.454-1.66.746-3.254.9-1.622.159-3.716.16-6.687.16h-7.886c-2.971 0-5.065-.001-6.688-.16-1.593-.154-2.533-.446-3.253-.9a6.872 6.872 0 01-2.143-2.144l-1.586 1 1.585-1c-.454-.72-.746-1.66-.9-3.253-.159-1.623-.16-3.717-.16-6.688v-9.197c0-2.045.008-2.804.122-3.4a6.874 6.874 0 015.458-5.459zm3.4-3.872h-.22c-1.747 0-2.892 0-3.885.19a10.623 10.623 0 00-8.435 8.435c-.19.993-.19 2.139-.19 3.885V27.622c0 2.851 0 5.127.178 6.953.182 1.875.566 3.472 1.462 4.892a10.624 10.624 0 003.312 3.312c1.42.896 3.017 1.28 4.892 1.462 1.826.178 4.102.178 6.953.178h8.082c2.85 0 5.127 0 6.953-.178 1.875-.182 3.472-.566 4.891-1.462a10.623 10.623 0 003.313-3.312c.896-1.42 1.28-3.017 1.462-4.892.178-1.826.178-4.102.178-6.953v-.196c0-2.851 0-5.127-.178-6.953-.182-1.875-.566-3.472-1.462-4.891a10.622 10.622 0 00-3.313-3.313c-1.419-.896-3.016-1.28-4.891-1.462-1.826-.178-4.102-.178-6.953-.178h-.532c-.183 0-.323 0-.443-.002-.1-.133-.232-.316-.422-.582a10.62 10.62 0 00-6.646-4.259c-.993-.19-2.139-.19-3.885-.19h-.22zm-2.82 17.042c0-.698.566-1.264 1.264-1.264H34.67c.698 0 1.264.566 1.264 1.264a1.875 1.875 0 003.749 0 5.013 5.013 0 00-5.013-5.013H15.342a5.013 5.013 0 00-5.013 5.013 1.875 1.875 0 003.75 0z" fill="#FFF"/></svg></svg>