<svg width="50" height="50" viewBox="0 0 50 50" fill="none" xmlns="http://www.w3.org/2000/svg">
<mask id="path-1-inside-1" fill="white">
<path fill-rule="evenodd" clip-rule="evenodd" d="M25.0093 23.952C30.4192 23.952 34.8048 19.5664 34.8048 14.1565C34.8048 8.74666 30.4192 4.36108 25.0093 4.36108C19.5995 4.36108 15.2139 8.74666 15.2139 14.1565C15.2139 19.5664 19.5995 23.952 25.0093 23.952ZM25.007 45.652C15.226 45.652 7.29688 43.2225 7.29688 38.1934C7.29688 33.1643 15.226 27.44 25.007 27.44C34.788 27.44 42.718 33.1643 42.718 38.1934C42.718 43.2225 34.788 45.652 25.007 45.652Z"/>
</mask>
<path d="M25.007 27.44V32.0249V27.44ZM30.2199 14.1565C30.2199 17.0342 27.887 19.3671 25.0093 19.3671V28.5369C32.9514 28.5369 39.3897 22.0986 39.3897 14.1565H30.2199ZM25.0093 8.94599C27.887 8.94599 30.2199 11.2788 30.2199 14.1565H39.3897C39.3897 6.21448 32.9514 -0.223825 25.0093 -0.223825V8.94599ZM19.7988 14.1565C19.7988 11.2788 22.1316 8.94599 25.0093 8.94599V-0.223825C17.0673 -0.223825 10.629 6.21448 10.629 14.1565H19.7988ZM25.0093 19.3671C22.1316 19.3671 19.7988 17.0342 19.7988 14.1565H10.629C10.629 22.0986 17.0673 28.5369 25.0093 28.5369V19.3671ZM2.71197 38.1934C2.71197 43.6626 7.11567 46.6523 10.8342 48.0864C14.7746 49.6061 19.8311 50.2369 25.007 50.2369V41.0671C20.4018 41.0671 16.6032 40.4832 14.1338 39.5308C12.9044 39.0566 12.2714 38.5924 11.9986 38.3078C11.8785 38.1825 11.8594 38.125 11.8676 38.1441C11.8798 38.1723 11.8818 38.2018 11.8818 38.1934H2.71197ZM25.007 22.8551C19.2568 22.8551 13.9656 24.5285 10.0052 27.0737C6.29873 29.4558 2.71197 33.3521 2.71197 38.1934H11.8818C11.8818 38.0055 12.2596 36.5252 14.9629 34.7878C17.4123 33.2137 20.9761 32.0249 25.007 32.0249V22.8551ZM47.3029 38.1934C47.3029 33.3519 43.7156 29.4556 40.0091 27.0736C36.0485 24.5285 30.7571 22.8551 25.007 22.8551V32.0249C29.0378 32.0249 32.602 33.2137 35.0517 34.7879C37.7554 36.5254 38.1331 38.0058 38.1331 38.1934H47.3029ZM25.007 50.2369C30.1828 50.2369 35.2395 49.6061 39.1801 48.0864C42.8986 46.6524 47.3029 43.6628 47.3029 38.1934H38.1331C38.1331 38.2017 38.1351 38.1722 38.1473 38.1439C38.1555 38.1248 38.1364 38.1823 38.0163 38.3077C37.7434 38.5923 37.1103 39.0566 35.8807 39.5308C33.411 40.4832 29.6121 41.0671 25.007 41.0671V50.2369Z" fill="#848DA0" mask="url(#path-1-inside-1)"/>
</svg>
