<?xml version="1.0" encoding="iso-8859-1"?>
<!-- Generator: Adobe Illustrator 19.0.0, SVG Export Plug-In . SVG Version: 6.00 Build 0)  -->
<svg version="1.1" id="Layer_1" xmlns="http://www.w3.org/2000/svg" xmlns:xlink="http://www.w3.org/1999/xlink" x="0px" y="0px"
	 viewBox="0 0 512 512" style="enable-background:new 0 0 512 512;" xml:space="preserve">
<g>
	<g>
		<path d="M502.805,240.459l-102.121-76.356c-6.386-4.779-13.314-5.921-18.922-3.07c-5.616,2.808-8.831,8.949-8.831,16.858v26.061
			H139.068v-26.061c0-7.909-3.223-14.05-8.831-16.867c-5.633-2.808-12.527-1.692-18.913,3.079L9.204,240.459
			c-5.913,4.415-9.271,10.751-9.203,17.357c0.059,6.589,3.51,12.823,9.457,17.095l101.875,73.243
			c6.42,4.61,13.314,5.616,18.93,2.749c5.599-2.876,8.805-9.051,8.805-16.951v-25.443h233.863v25.443
			c0,7.9,3.206,14.075,8.805,16.951c2.106,1.074,4.39,1.607,6.767,1.607c3.959,0,8.163-1.472,12.18-4.365l101.867-73.234
			c5.946-4.28,9.389-10.505,9.448-17.095C512.067,251.21,508.717,244.883,502.805,240.459z M492.434,260.853l-101.858,73.226
			c-0.11,0.085-0.22,0.152-0.313,0.22c-0.008-0.11-0.008-0.228-0.008-0.347v-34.105c0-4.787-3.874-8.662-8.662-8.662H130.407
			c-4.787,0-8.662,3.874-8.662,8.662v34.105c0,0.118,0,0.237-0.008,0.338c-0.093-0.059-0.194-0.136-0.296-0.203L19.574,260.853
			c-1.421-1.024-2.242-2.191-2.25-3.197c-0.008-1.032,0.812-2.242,2.25-3.324l102.129-76.356c0.008-0.017,0.025-0.025,0.042-0.034
			v34.672c0,4.787,3.874,8.662,8.662,8.662h251.186c4.788,0,8.662-3.874,8.662-8.662v-34.68c0.017,0.017,0.042,0.025,0.059,0.042
			l102.112,76.355c1.446,1.074,2.267,2.292,2.259,3.324C494.667,258.662,493.855,259.829,492.434,260.853z"/>
	</g>
</g>
<g>
</g>
<g>
</g>
<g>
</g>
<g>
</g>
<g>
</g>
<g>
</g>
<g>
</g>
<g>
</g>
<g>
</g>
<g>
</g>
<g>
</g>
<g>
</g>
<g>
</g>
<g>
</g>
<g>
</g>
</svg>
