<svg width="50" height="50" viewBox="0 0 50 50" fill="none" xmlns="http://www.w3.org/2000/svg">
<mask id="path-1-inside-1" fill="white">
<path d="M4.16602 16.0904C4.16602 10.7805 8.47049 6.47607 13.7803 6.47607H36.2327C41.5425 6.47607 45.847 10.7805 45.847 16.0904V33.9234C45.847 39.2332 41.5425 43.5377 36.2327 43.5377H13.7803C8.47047 43.5377 4.16602 39.2332 4.16602 33.9234V16.0904Z"/>
</mask>
<path d="M13.7803 10.5965H36.2327V2.35566H13.7803V10.5965ZM41.7266 16.0904V33.9234H49.9674V16.0904H41.7266ZM36.2327 39.4173H13.7803V47.6581H36.2327V39.4173ZM8.28643 33.9234V16.0904H0.0455999V33.9234H8.28643ZM13.7803 39.4173C10.7461 39.4173 8.28643 36.9576 8.28643 33.9234H0.0455999C0.0455999 41.5089 6.19483 47.6581 13.7803 47.6581V39.4173ZM41.7266 33.9234C41.7266 36.9576 39.2669 39.4173 36.2327 39.4173V47.6581C43.8182 47.6581 49.9674 41.5089 49.9674 33.9234H41.7266ZM36.2327 10.5965C39.2669 10.5965 41.7266 13.0562 41.7266 16.0904H49.9674C49.9674 8.50491 43.8182 2.35566 36.2327 2.35566V10.5965ZM13.7803 2.35566C6.19484 2.35566 0.0455999 8.5049 0.0455999 16.0904H8.28643C8.28643 13.0562 10.7461 10.5965 13.7803 10.5965V2.35566Z" fill="#848DA0" mask="url(#path-1-inside-1)"/>
<path d="M12.7536 16.3159C11.8208 15.8588 10.7329 16.3331 10.3238 17.3751C9.91461 18.4171 10.3392 19.6323 11.272 20.0893L24.2613 26.453C24.2708 26.4577 24.2803 26.4623 24.2899 26.4668C24.5243 26.5775 24.7679 26.6299 25.0077 26.6298C25.2475 26.6299 25.4912 26.5775 25.7255 26.4668C25.7351 26.4623 25.7446 26.4577 25.7541 26.453L38.7434 20.0893C39.6763 19.6323 40.1008 18.4171 39.6917 17.3751C39.2825 16.3331 38.1946 15.8588 37.2618 16.3159L26.2163 21.7273C25.4539 22.1008 24.5616 22.1008 23.7992 21.7273L12.7536 16.3159Z" fill="#848DA0"/>
</svg>
