<?xml version="1.0" encoding="iso-8859-1"?>
<!-- Generator: Adobe Illustrator 19.0.0, SVG Export Plug-In . SVG Version: 6.00 Build 0)  -->
<svg version="1.1" id="Layer_1" xmlns="http://www.w3.org/2000/svg" xmlns:xlink="http://www.w3.org/1999/xlink" x="0px" y="0px"
	 viewBox="0 0 512 512" style="enable-background:new 0 0 512 512;" xml:space="preserve">
<g>
	<g>
		<path d="M503.172,0H8.828C3.953,0,0,3.953,0,8.828v273.655v220.69C0,508.047,3.953,512,8.828,512h220.69h273.655
			c4.875,0,8.828-3.953,8.828-8.828V8.828C512,3.953,508.047,0,503.172,0z M220.69,494.345H17.655V291.31H220.69V494.345z
			 M494.345,494.345h-256V282.483c0-4.875-3.953-8.828-8.828-8.828H17.655v-256h476.69V494.345z"/>
	</g>
</g>
<g>
	<g>
		<path d="M432.552,79.448H308.966c-4.875,0-8.828,3.953-8.828,8.828c0,4.875,3.953,8.828,8.828,8.828H411.24L261.171,247.172
			l12.484,12.484l150.069-150.069v102.275c0,4.875,3.953,8.828,8.828,8.828c4.875,0,8.828-3.953,8.828-8.828V88.276
			C441.379,83.401,437.427,79.448,432.552,79.448z"/>
	</g>
</g>
<g>
</g>
<g>
</g>
<g>
</g>
<g>
</g>
<g>
</g>
<g>
</g>
<g>
</g>
<g>
</g>
<g>
</g>
<g>
</g>
<g>
</g>
<g>
</g>
<g>
</g>
<g>
</g>
<g>
</g>
</svg>
