<?xml version="1.0" encoding="iso-8859-1"?>
<!-- Generator: Adobe Illustrator 19.0.0, SVG Export Plug-In . SVG Version: 6.00 Build 0)  -->
<svg version="1.1" id="Capa_1" xmlns="http://www.w3.org/2000/svg" xmlns:xlink="http://www.w3.org/1999/xlink" x="0px" y="0px"
	 viewBox="0 0 512 512" style="enable-background:new 0 0 512 512;" xml:space="preserve">
<g>
	<g>
		<path d="M452,0H60C26.916,0,0,26.916,0,60v392c0,33.084,26.916,60,60,60h392c33.084,0,60-26.916,60-60V60
			C512,26.916,485.084,0,452,0z M472,452c0,11.028-8.972,20-20,20H60c-11.028,0-20-8.972-20-20V60c0-11.028,8.972-20,20-20h392
			c11.028,0,20,8.972,20,20V452z"/>
	</g>
</g>
<g>
	<g>
		<path d="M386.6,119.04c-9.366-5.853-21.706-3.007-27.56,6.36L224.499,340.666L152,244c-6.628-8.836-19.162-10.628-28-4
			c-8.837,6.627-10.627,19.164-4,28l90,120c3.786,5.048,9.721,8,15.998,8c0.283,0,0.566-0.006,0.851-0.018
			c6.589-0.28,12.616-3.79,16.111-9.382l150-240C398.815,137.233,395.967,124.894,386.6,119.04z"/>
	</g>
</g>
<g>
</g>
<g>
</g>
<g>
</g>
<g>
</g>
<g>
</g>
<g>
</g>
<g>
</g>
<g>
</g>
<g>
</g>
<g>
</g>
<g>
</g>
<g>
</g>
<g>
</g>
<g>
</g>
<g>
</g>
</svg>
