<?xml version="1.0" encoding="iso-8859-1"?>
<!-- Generator: Adobe Illustrator 19.1.0, SVG Export Plug-In . SVG Version: 6.00 Build 0)  -->
<svg version="1.1" id="Capa_1" xmlns="http://www.w3.org/2000/svg" xmlns:xlink="http://www.w3.org/1999/xlink" x="0px" y="0px"
	 viewBox="0 0 48 48" style="enable-background:new 0 0 48 48;" xml:space="preserve">
<g id="see_1_">
	<g>
		<path d="M24,8C11.056,8,0,24,0,24s11.048,16,24,16c12.944,0,24-16,24-16S36.952,8,24,8z M24,36c-7.469,0-15.137-7.324-19-12
			c3.853-4.678,11.502-12,19-12c7.469,0,15.137,7.324,19,12C39.147,28.678,31.498,36,24,36z M24,16c-4.418,0-8,3.582-8,8
			c0,4.418,3.582,8,8,8c4.418,0,8-3.582,8-8C32,19.582,28.418,16,24,16z M24,28c-2.451,0-4-1.549-4-4c0-2.451,1.549-4,4-4
			c2.451,0,4,1.549,4,4C28,26.451,26.451,28,24,28z"/>
	</g>
</g>
<g>
</g>
<g>
</g>
<g>
</g>
<g>
</g>
<g>
</g>
<g>
</g>
<g>
</g>
<g>
</g>
<g>
</g>
<g>
</g>
<g>
</g>
<g>
</g>
<g>
</g>
<g>
</g>
<g>
</g>
</svg>
