<?xml version="1.0" encoding="utf-8"?>
<svg id="Capa_1" style="enable-background:new 0 0 31.479 31.479;" x="0px" y="0px" viewBox="0 0 31.479 31.479" xmlns="http://www.w3.org/2000/svg">
  <path d="M 26.477 10.274 C 26.921 10.718 26.921 11.417 26.477 11.861 C 26.048 12.29 25.334 12.29 24.906 11.861 L 16.859 3.814 L 16.859 30.369 C 16.859 30.988 16.367 31.48 15.748 31.48 C 15.129 31.48 14.621 30.988 14.621 30.369 L 14.621 3.813 L 6.59 11.86 C 6.146 12.289 5.431 12.289 5.003 11.86 C 4.559 11.416 4.559 10.717 5.003 10.273 L 14.955 0.321 C 15.384 -0.108 16.098 -0.108 16.526 0.321 L 26.477 10.274 Z" transform="matrix(-1, 0, 0, -1, 31.479999, 31.371998)"/>
  <g/>
  <g/>
  <g/>
  <g/>
  <g/>
  <g/>
  <g/>
  <g/>
  <g/>
  <g/>
  <g/>
  <g/>
  <g/>
  <g/>
  <g/>
</svg>