<svg width="24" height="24" viewBox="0 0 24 24" fill="none" xmlns="http://www.w3.org/2000/svg">
<path fill-rule="evenodd" clip-rule="evenodd" d="M16.735 3.97651H7.27492C5.45413 3.97651 3.9781 5.45255 3.9781 7.27333V16.7334C3.9781 18.5542 5.45413 20.0302 7.27492 20.0302H16.735C18.5557 20.0302 20.0318 18.5542 20.0318 16.7334V7.27334C20.0318 5.45255 18.5557 3.97651 16.735 3.97651ZM7.27492 1.99841C4.36166 1.99841 2 4.36007 2 7.27333V16.7334C2 19.6466 4.36166 22.0083 7.27492 22.0083H16.735C19.6482 22.0083 22.0099 19.6466 22.0099 16.7334V7.27334C22.0099 4.36008 19.6482 1.99841 16.735 1.99841H7.27492Z" fill="#61BDF6"/>
<path d="M14.2656 12.0112L14.2658 12.011C14.814 11.5632 15.0784 10.9044 15.0784 10.0618C15.0784 9.28088 14.8333 8.6532 14.3296 8.19901C13.8297 7.7483 13.1693 7.52993 12.3644 7.52993C11.7866 7.52993 11.2771 7.63843 10.8404 7.86105C10.4053 8.07507 10.0683 8.37803 9.83496 8.77021C9.71199 8.97274 9.62275 9.19139 9.56721 9.42552C9.45773 9.88697 9.86223 10.2351 10.2787 10.2351C10.7239 10.2351 11.0255 9.85745 11.1906 9.53398C11.244 9.42926 11.3157 9.33421 11.4066 9.24863C11.63 9.0384 11.9286 8.92744 12.3178 8.92744C12.6828 8.92744 12.9562 9.0339 13.1556 9.23369L13.1556 9.2337L13.1575 9.23547C13.3545 9.42629 13.4615 9.69863 13.4615 10.0734C13.4615 10.6391 13.2808 10.9906 12.9543 11.1808C12.597 11.3809 12.0939 11.488 11.432 11.488C11.0402 11.488 10.7226 11.8056 10.7226 12.1974V13.1803C10.7226 13.6107 11.0715 13.9597 11.5019 13.9597C11.9324 13.9597 12.2813 13.6107 12.2813 13.1803V13.1617C12.2813 12.895 12.4987 12.6661 12.7877 12.6223C13.3774 12.5329 13.8724 12.3312 14.2656 12.0112ZM12.4212 15.5844C12.4212 15.0953 12.0247 14.6988 11.5356 14.6988H11.4916C11.0025 14.6988 10.606 15.0953 10.606 15.5844C10.606 16.0734 11.0025 16.4699 11.4916 16.4699H11.5356C12.0247 16.4699 12.4212 16.0734 12.4212 15.5844Z" fill="#61BDF6" stroke="#61BDF6" stroke-width="0.3"/>
</svg>
