<svg width="50" height="50" viewBox="0 0 50 50" fill="none" xmlns="http://www.w3.org/2000/svg">
<rect x="5.5" y="6.5" width="39" height="8" rx="4" stroke="#848DA0" stroke-width="3"/>
<rect x="5.5" y="20.5" width="39" height="8" rx="4" stroke="#848DA0" stroke-width="3"/>
<rect x="5.5" y="34.5" width="39" height="8" rx="4" stroke="#848DA0" stroke-width="3"/>
<path d="M14 11C14 11.5533 13.5533 12 13 12C12.4467 12 12 11.5533 12 11C12 10.4467 12.4467 10 13 10C13.5533 10 14 10.4467 14 11Z" fill="#848DA0"/>
<path d="M14 25C14 25.5533 13.5533 26 13 26C12.4467 26 12 25.5533 12 25C12 24.4467 12.4467 24 13 24C13.5533 24 14 24.4467 14 25Z" fill="#848DA0"/>
<path d="M14 39C14 39.5533 13.5533 40 13 40C12.4467 40 12 39.5533 12 39C12 38.4467 12.4467 38 13 38C13.5533 38 14 38.4467 14 39Z" fill="#848DA0"/>
<path d="M19 11C19 11.5533 18.5533 12 18 12C17.4467 12 17 11.5533 17 11C17 10.4467 17.4467 10 18 10C18.5533 10 19 10.4467 19 11Z" fill="#848DA0"/>
<path d="M19 25C19 25.5533 18.5533 26 18 26C17.4467 26 17 25.5533 17 25C17 24.4467 17.4467 24 18 24C18.5533 24 19 24.4467 19 25Z" fill="#848DA0"/>
<path d="M19 39C19 39.5533 18.5533 40 18 40C17.4467 40 17 39.5533 17 39C17 38.4467 17.4467 38 18 38C18.5533 38 19 38.4467 19 39Z" fill="#848DA0"/>
<path d="M36 16V19" stroke="#848DA0" stroke-width="2"/>
<path d="M36 30V33" stroke="#848DA0" stroke-width="2"/>
<path d="M14 16V19" stroke="#848DA0" stroke-width="2"/>
<path d="M14 30V33" stroke="#848DA0" stroke-width="2"/>
</svg>
