<?xml version="1.0" encoding="iso-8859-1"?>
<!-- Generator: Adobe Illustrator 19.0.0, SVG Export Plug-In . SVG Version: 6.00 Build 0)  -->
<svg version="1.1" id="Capa_1" xmlns="http://www.w3.org/2000/svg" xmlns:xlink="http://www.w3.org/1999/xlink" x="0px" y="0px"
	 viewBox="0 0 512 512" style="enable-background:new 0 0 512 512;" xml:space="preserve">
<g>
	<g>
		<g>
			<polygon points="234.53,285.912 169.76,224.259 142.172,253.242 236.775,343.294 380.923,182.799 351.154,156.061 			"/>
			<path d="M420.499,65.192c-48.502-8.692-93.168-35.18-115.476-50.195C290.447,5.186,273.496,0,256.001,0
				s-34.447,5.186-49.022,14.996C184.671,30.011,140.005,56.5,91.503,65.192c-28.726,5.148-49.576,30.002-49.576,59.097v120.71
				c0,39.877,11.157,78.749,33.159,115.539c17.214,28.781,41.064,56.288,70.888,81.757c50.147,42.825,99.804,65.156,101.892,66.086
				L256,512l8.134-3.619c2.089-0.929,51.745-23.261,101.892-66.086c29.823-25.469,53.675-52.976,70.888-81.757
				c22.004-36.789,33.159-75.662,33.159-115.539V124.29C470.075,95.194,449.225,70.34,420.499,65.192z M430.061,245
				c0,59.45-30.033,115.375-89.267,166.224c-34.432,29.558-69.39,48.824-84.791,56.643C220.601,449.879,81.941,371.328,81.941,245
				V124.29c0-9.695,6.99-17.985,16.621-19.711c55.718-9.985,105.843-39.616,130.761-56.388c7.947-5.35,17.172-8.178,26.678-8.178
				c9.506,0,18.732,2.828,26.678,8.177c24.919,16.773,75.043,46.402,130.761,56.387c9.63,1.726,16.621,10.016,16.621,19.711V245z"/>
		</g>
	</g>
</g>
<g>
</g>
<g>
</g>
<g>
</g>
<g>
</g>
<g>
</g>
<g>
</g>
<g>
</g>
<g>
</g>
<g>
</g>
<g>
</g>
<g>
</g>
<g>
</g>
<g>
</g>
<g>
</g>
<g>
</g>
</svg>
