<svg xmlns="http://www.w3.org/2000/svg" viewBox="0 0 246.027 246.027"><path d="M242.751 196.508l-98.814-171.15c-4.367-7.564-12.189-12.081-20.924-12.081s-16.557 4.516-20.924 12.081L3.276 196.508c-4.368 7.564-4.368 16.596 0 24.161S15.465 232.75 24.2 232.75h197.629c8.734 0 16.556-4.516 20.923-12.08 4.367-7.565 4.366-16.597-.001-24.162zm-119.737 8.398c-8.672 0-15.727-7.055-15.727-15.727 0-8.671 7.055-15.726 15.727-15.726s15.727 7.055 15.727 15.726c-.001 8.673-7.056 15.727-15.727 15.727zm15.833-67.226c0 8.73-7.103 15.833-15.833 15.833s-15.833-7.103-15.833-15.833V65.013a7.5 7.5 0 0 1 7.5-7.5h16.667a7.5 7.5 0 0 1 7.5 7.5v72.667z"/></svg>