<svg id="svg1144" height="512" viewBox="0 0 8.4666667 8.4666667" width="512" xmlns="http://www.w3.org/2000/svg" xmlns:svg="http://www.w3.org/2000/svg"><g id="layer2"><path id="path2846" d="m2.9102882-.0000016c-.441363 0-.792717.35755-.792717.79270997v2.11718993c0 .3607801.5291671.3607801.5291671 0v-2.11718993c0-.15114998.1196279-.26354998.2635499-.26354998h4.76405c.1511551 0 .2635498.12273.2635498.26354998v6.88123993c0 .1428901-.1123947.2635501-.2635498.2635501h-4.76405c-.1511559 0-.2635499-.12066-.2635499-.2635501v-2.11719c0-.3502898-.5291671-.35545-.5291671 0v2.11719c0 .4403299.357556.79272.792717.79272h4.76405c.435161 0 .792716-.3523901.792716-.79272v-6.88123993c0-.43515997-.352388-.79270997-.792716-.79270997zm1.136881 3.0995498.869198.8692002h-4.65242994c-.352433 0-.352433.5291601 0 .5291601h4.65397994l-.870748.8691999c-.2501141.2501098.1250569.62529.375171.3751699l1.3223999-1.3224c.1029031-.1028999.1029031-.2701999 0-.3731l-1.3223999-1.3224c-.265198-.2415599-.6109431.11845-.375171.3751699z" font-variant-ligatures="normal" font-variant-position="normal" font-variant-caps="normal" font-variant-numeric="normal" font-variant-alternates="normal" font-feature-settings="normal" text-indent="0" text-align="start" text-decoration-line="none" text-decoration-style="solid" text-decoration-color="rgb(0,0,0)" text-transform="none" text-orientation="mixed" white-space="normal" shape-padding="0" isolation="auto" mix-blend-mode="normal" solid-color="rgb(0,0,0)" solid-opacity="1" vector-effect="none"/></g></svg>