<?xml version="1.0" encoding="utf-8"?>
<!-- Generator: Adobe Illustrator 21.0.0, SVG Export Plug-In . SVG Version: 6.00 Build 0)  -->
<svg version="1.1" id="Layer_1" xmlns="http://www.w3.org/2000/svg" xmlns:xlink="http://www.w3.org/1999/xlink" x="0px" y="0px"
	 viewBox="0 0 454.1 102.2" style="enable-background:new 0 0 454.1 102.2;" xml:space="preserve">
<style type="text/css">
	.st0{fill:#FFFFFF;}
	.st1{fill:#FFFFFF;}
	.st2{fill:#0682B4;}
	.st3{fill:#31B7E9;}
</style>
<path class="st0" d="M111,72h1.5l3,13.1L120,72h1l4.6,12.9l3.2-12.9h1.4l-3.7,14.9H125l-4.5-12.8l-4.4,12.8h-1.6L111,72z M142,78.4
	h9.7c0-3.4-1.6-5.2-4.5-5.2C143.8,73.3,142.1,75,142,78.4 M147.1,72c3.9,0,5.9,2.2,5.9,6.6c0,0.3,0,0.6,0,1h-11
	c0,3.8,1.9,5.8,5.9,5.8c1.6,0,3.1-0.2,4.3-0.6v1.3c-1.3,0.4-2.7,0.6-4.3,0.6c-4.8,0-7.5-2.5-7.5-7.7C140.6,74.3,142.8,72,147.1,72
	 M165.9,85.2c1.5,0.2,2.8,0.4,3.9,0.4c3.7,0,5.5-2.1,5.5-6.4c0-3.7-1.7-5.5-5.1-5.5c-1.4,0-2.8,0.2-4.4,0.7L165.9,85.2L165.9,85.2z
	 M164.5,66.7h1.5v6.1c1.7-0.4,3.2-0.6,4.4-0.6c4.3,0,6.4,2.3,6.4,7.2c0,5.1-2.2,7.8-6.7,7.8c-2,0-3.8-0.2-5.5-0.5L164.5,66.7
	L164.5,66.7z M213.4,86.4c-1.2,0.2-2.5,0.4-3.8,0.4c-4.8,0-7.4-2.6-7.4-7.8c0-4.7,2.3-7.2,7.4-7.2c1.4,0,2.6,0.1,3.8,0.4v1.3
	c-1.3-0.2-2.5-0.4-3.6-0.4c-3.8,0-5.8,1.9-5.8,5.9c0,4.3,1.9,6.4,5.8,6.4c1.2,0,2.3-0.1,3.6-0.4V86.4z M230.4,85.8
	c3.5,0,5.2-2.1,5.2-6.3s-1.7-6.2-5.2-6.2s-5.2,2-5.2,6.2C225.2,83.6,227,85.8,230.4,85.8 M223.8,79.5c0-4.9,2.2-7.7,6.6-7.7
	c4.4,0,6.6,2.5,6.6,7.7c0,4.9-2.2,7.7-6.6,7.7C226,86.9,223.8,84.5,223.8,79.5 M248.8,86.8V72h1l0.2,1.9c1.8-1.3,3.6-1.9,5.3-1.9
	c3.5,0,5.2,1.6,5.2,4.6v10.3H259V76.6c0-2.1-1.3-3.3-3.8-3.3c-1.7,0-3.4,0.6-5.1,1.9V87L248.8,86.8L248.8,86.8L248.8,86.8z
	 M272.6,69.7h1l0.2,2.3h4.3v1.3H274v9.6c0,1.9,0.6,2.9,2,2.9h2.1v1.3h-2c-2.3,0-3.5-1.4-3.5-3.9V69.7z M289.1,86.8V72h1.1l0.2,2.5
	c1.5-1.6,3.1-2.5,4.7-2.5v1.2c-1.7,0-3.3,0.9-4.5,2.6V87L289.1,86.8L289.1,86.8z M311.7,85.8c3.5,0,5.2-2.1,5.2-6.3
	s-1.7-6.2-5.2-6.2s-5.2,2-5.2,6.2C306.3,83.6,308,85.8,311.7,85.8 M304.8,79.5c0-4.9,2.2-7.7,6.6-7.7s6.6,2.5,6.6,7.7
	c0,4.9-2.2,7.7-6.6,7.7C307.2,86.9,304.8,84.5,304.8,79.5 M331.4,86.8h-1.5V66.6h1.5V86.8z M359.9,84.7c1.5,0.5,2.8,0.7,3.9,0.7
	c3.7,0,5.5-2.1,5.5-6.3c0-3.7-1.8-5.7-5.5-5.7c-1.3,0-2.6,0.1-3.9,0.3V84.7z M358.5,72.5c1.6-0.4,3.5-0.5,5.4-0.5
	c4.6,0,6.8,2.3,6.8,6.9c0,5.2-2.2,7.9-6.8,7.9c-1.2,0-2.5-0.2-3.9-0.6v6.1h-1.5V72.5z M387.4,79.5c-2.8,0-4.2,1-4.2,3
	c0,1.9,1.2,2.9,3.5,2.9c1.7,0,3.4-0.4,4.9-1.5v-4.1C390,79.6,388.6,79.5,387.4,79.5 M381.6,82.7c0-2.9,1.9-4.4,5.7-4.4
	c1.4,0,2.7,0.1,4.3,0.2v-1.8c0-2.2-1.4-3.4-4.1-3.4c-1.6,0-3.2,0.2-4.6,0.6v-1.4c1.6-0.4,3.1-0.6,4.6-0.6c3.7,0,5.5,1.6,5.5,4.6
	v10.3h-0.9l-0.3-1.5c-1.8,1.1-3.5,1.5-5.2,1.5C383.2,86.8,381.6,85.5,381.6,82.7 M405.1,86.8V72h1l0.2,1.9c1.8-1.3,3.6-1.9,5.3-1.9
	c3.5,0,5.2,1.6,5.2,4.6v10.3h-1.5V76.6c0-2.1-1.3-3.3-3.8-3.3c-1.7,0-3.4,0.6-5.1,1.9V87L405.1,86.8L405.1,86.8L405.1,86.8z
	 M429.9,78.4h9.7c-0.1-3.4-1.6-5.2-4.5-5.2C431.7,73.3,430.1,75,429.9,78.4 M435,72c3.9,0,5.9,2.2,5.9,6.6c0,0.3,0,0.6,0,1h-11
	c0,3.8,2,5.8,5.9,5.8c1.6,0,3.1-0.2,4.3-0.6v1.3c-1.3,0.4-2.7,0.6-4.3,0.6c-4.8,0-7.5-2.5-7.5-7.7C428.5,74.3,430.7,72,435,72
	 M454,86.8h-1.5V66.6h1.5V86.8z"/>
<path class="st1" d="M136.9,43.3V26.6c0-2-0.7-3.3-2.3-4c-1.5-0.6-3.8-1.2-6.9-1.2h-7.1v26.5h6.8c3.6,0,6.1-0.2,7.6-0.7
	C136.2,46.7,136.9,45.3,136.9,43.3 M146.3,26.8v16.5c0,4.5-1.4,7.8-4,9.3c-2.7,1.6-7.7,2.4-14.5,2.4h-16.7V14.5h16.6
	c6.6,0,11.4,0.7,14.3,2.6C144.8,18.8,146.3,22.1,146.3,26.8 M162.8,54.9H154v-30h8.8V54.9z M162.8,21.3H154v-7.2h8.8V21.3z
	 M190.1,31.7H187c-2.4,0-4.2,0.3-5.4,1.2c-1.3,0.7-1.9,2.1-1.9,3.9v18.1h-8.8v-30h8.4v5.2c0-1.5,0.9-2.8,2.4-4
	c1.6-1.2,3.4-1.9,5-1.9h3.2L190.1,31.7z M213.7,37.1v-4.3c0-0.9-0.3-1.6-1.2-2.2c-0.6-0.4-2.1-0.7-3.9-0.7c-2.1,0-3.6,0.2-4.3,0.7
	c-0.6,0.4-1.2,1.3-1.2,2.2v4.3H213.7z M222.1,42.3h-18.9V45c0,1.7,0.5,2.9,1.7,3.7c1.2,0.9,3.4,1.2,6.5,1.2c2.9,0,6.2-0.4,9.9-1.3
	v5.9c-3.7,0.7-7.7,1.2-11.4,1.2c-10.4,0-15.4-3.3-15.4-9.9V35c0-3.8,1.2-6.6,3.6-8.3c2.4-1.6,6.1-2.4,10.9-2.4c4.5,0,8,0.7,10.1,2.3
	c2.2,1.5,3.3,4.3,3.3,8.4L222.1,42.3z M253.2,54.5c-3.5,0.6-6.8,1-10,1c-1.5,0-2.7,0-3.6-0.1c-0.9,0-2-0.1-3.4-0.3s-2.4-0.4-3.3-0.9
	c-0.7-0.4-1.6-1.1-2.4-1.7c-0.7-0.6-1.4-1.7-1.9-2.9c-0.3-1.2-0.5-2.7-0.5-4.3V35.2c0-1.5,0.1-2.8,0.4-3.9c0.3-1.2,0.7-2.1,1.3-2.8
	c0.4-0.7,1.2-1.4,2.1-2c0.9-0.5,1.7-0.9,2.4-1.2c0.7-0.2,1.7-0.4,3-0.6c1.3-0.1,2.2-0.2,3-0.2c0.7,0,1.9,0,3.3,0
	c2.2,0,5,0.3,8.8,1.2v6c-4.2-1.1-7.2-1.5-9.7-1.5c-4,0-6.1,1.4-6.1,4.2v10.8c0,3.1,2.2,4.7,6.6,4.7c2.1,0,5.1-0.4,9.4-1.4
	L253.2,54.5z M277.9,55.2c-1.7,0.2-3.4,0.3-4.8,0.3s-2.6,0-3.6-0.1s-2.1-0.3-3.2-0.6c-1-0.3-2-0.9-2.7-1.5c-0.6-0.6-1.3-1.5-1.7-2.7
	c-0.4-1.2-0.6-2.6-0.6-4.2v-16h-6v-5.6h6V16h8.8v8.7h8.1v5.6h-8.1v14.2c0,2.1,0.3,3.5,0.9,4.2s2,1,3.9,1c0.6,0,1.7-0.1,3.2-0.3
	L277.9,55.2z"/>
<path class="st1" d="M308.7,39.1l-4.5-14.2H304l-4.5,14.2H308.7z M323,55.1h-9l-3.3-10h-13.5l-3.3,10h-8.6l13.6-37.7h10.7L323,55.1z
	 M345.8,46.6V35.3c0-1.4-0.3-2.4-1.1-2.9c-0.7-0.5-2.3-0.7-4.6-0.7c-2.5,0-4,0.2-4.6,0.7c-0.5,0.5-0.8,1.6-0.8,3.3v10.7
	c0,1.5,0.3,2.6,0.8,3.2s2,0.8,4.2,0.8c2.7,0,4.3-0.2,5.1-0.7C345.4,49.1,345.8,48.1,345.8,46.6 M354,55.1h-8v-3.2
	c-0.6,1.1-1.2,1.9-1.7,2.3s-1.3,0.8-2.4,1.1c-1.1,0.2-2.5,0.3-4.4,0.3c-4.6,0-7.8-0.6-9.3-1.9c-1.4-1.2-2.2-3.8-2.2-8V34.9
	c0-3.2,0.8-5.3,2.6-6.6c1.7-1.2,4.4-1.9,8.3-1.9c2.7,0,4.5,0.2,5.7,0.7c1.1,0.5,2.1,1.5,3.1,3V14.4h8.3V55.1L354,55.1z M403.9,55.1
	h-8.3V35.6c0-1.7-0.2-2.8-0.5-3.3c-0.4-0.4-1.5-0.7-3.3-0.7c-2.3,0-3.6,0.2-4.1,0.7c-0.5,0.4-0.7,1.5-0.7,3.3V55h-8.3V35.6
	c0-1.7-0.2-2.8-0.5-3.3c-0.4-0.4-1.5-0.7-3.3-0.7c-2.3,0-3.6,0.2-4.1,0.7c-0.5,0.4-0.7,1.5-0.7,3.3V55h-8.3V27h8.3v3.4
	c0.5-2.6,3.3-4,8.1-4c2.6,0,4.5,0.3,5.9,1.1c1.3,0.6,2.2,1.7,2.6,3.2c0.4-1.4,1.3-2.5,2.6-3.2c1.3-0.6,3.3-1,6-1c3.6,0,6,0.6,7.2,2
	s1.7,3.4,1.7,6.1L403.9,55.1z M419.8,55.1h-8.3V27h8.3V55.1z M419.8,23.7h-8.3v-6.9h8.3V23.7z M453.8,55.1h-8.3V35.6
	c0-1.5-0.2-2.6-0.7-3.2c-0.5-0.5-1.7-0.7-3.6-0.7c-2.4,0-3.9,0.2-4.4,0.7c-0.6,0.5-0.9,1.5-0.9,3.2v19.5h-8.3V27h8.2v3.4
	c0.6-2.6,3.6-4,8.7-4c3.6,0,6.1,0.6,7.5,2c1.3,1.3,2.1,3.4,2.1,6.1L453.8,55.1z"/>
<polygon class="st2" points="88,52.6 88,52.6 38.4,3 24.2,17.2 59.7,52.6 24.3,88 38.4,102.2 "/>
<polygon class="st3" points="85,49.6 85,49.6 35.4,0 21.2,14.2 56.7,49.6 21.3,85 35.4,99.2 "/>
<polyline class="st2" points="10.6,74.4 14.2,78 42.5,49.6 38.7,45.8 "/>
<polyline class="st3" points="38.7,45.9 14.2,21.3 0,35.4 14.2,49.6 0,63.8 10.6,74.4 "/>
</svg>
