<svg width="227" height="46" viewBox="0 0 227 46" fill="none" xmlns="http://www.w3.org/2000/svg">
<g clip-path="url(#clip0_3074_3810)">
<path d="M71.1193 37.2716C63.0464 37.2716 56.3965 31.2558 56.3965 23.3182C56.3965 15.3805 62.8722 9.53174 70.9449 9.53174C75.9687 9.53174 80.4697 11.7598 83.1413 15.9097C84.0415 17.2744 84.7675 18.6669 85.116 20.2267H77.5659C76.4914 17.4694 73.9651 15.5754 70.7417 15.5754C66.2407 15.5754 63.1915 19.1961 63.1915 23.3182C63.1915 27.4401 66.0664 31.2279 70.7417 31.2279C73.7909 31.2279 76.1139 29.3341 77.3916 26.7438H84.9417C83.6931 32.9548 77.9434 37.2716 71.1193 37.2716Z" fill="#2A3B67"/>
<path d="M92.5962 25.7861V37.2717H86.6289V16.2488H92.2646V18.5749C93.2869 16.4232 94.9996 15.6963 97.2098 15.6963V21.977C94.6405 22.0061 92.5962 22.5295 92.5962 25.7861Z" fill="#2A3B67"/>
<path d="M115.175 36.7372V34.3228C114.115 36.5561 111.449 37.4916 109.156 37.4916C102.764 37.4916 98.6934 32.2707 98.6934 25.9333C98.6934 19.5958 102.936 14.375 109.156 14.375C111.449 14.375 113.943 15.3104 115.175 17.3626V15.1295H121.367V37.2883H115.175V36.7372ZM109.844 20.32C106.834 20.32 104.713 22.7344 104.713 25.9032C104.713 28.8908 107.006 31.3051 109.844 31.3051C112.853 31.3051 114.975 28.8908 114.975 25.7221C115.175 22.5533 112.853 20.32 109.844 20.32Z" fill="#2A3B67"/>
<path d="M144.068 21.2723V37.2716H137.849V21.2723H131.429V37.2716H125.21V21.2723H122.906V16.6394H125.21V16.0926C125.21 10.2224 130.191 9.6757 133.214 9.6757H134.107V14.3085H133.387C132.839 14.3085 131.429 14.4812 131.429 16.2653V16.6107H137.849V9.53174H144.068V16.4667H147.091V21.0996H144.068V21.2723Z" fill="#2A3B67"/>
<path d="M162.065 37.2716V25.8764C162.065 23.5743 161.329 21.6175 158.618 21.6175C155.908 21.6175 154.965 23.4017 154.965 25.7037V37.2716H148.602V9.53174H154.965V18.4235C156.054 16.4667 158.236 15.7473 160.415 15.7473C162.418 15.7473 164.775 16.4667 166.249 18.0493C168.252 20.3514 168.252 22.8549 168.252 25.7037V37.2716H162.065Z" fill="#2A3B67"/>
<path d="M181.855 37.2717C175.789 37.2717 171.273 32.7371 171.273 26.4841C171.273 20.2311 175.816 15.6963 181.855 15.6963C187.893 15.6963 192.435 20.2311 192.435 26.4841C192.435 32.7371 187.893 37.2717 181.855 37.2717ZM181.855 21.4141C179.161 21.4141 177.149 23.8645 177.149 26.4558C177.149 29.2443 179.161 31.4977 181.855 31.4977C184.547 31.4977 186.56 29.0472 186.56 26.4558C186.56 23.8645 184.547 21.4141 181.855 21.4141Z" fill="#2A3B67"/>
<path d="M202.912 37.388C198.67 37.388 194.943 35.1169 194.57 30.5464H200.763C200.935 31.767 201.824 32.4768 203.056 32.4768C203.945 32.4768 205.177 31.9374 205.177 30.8869C205.177 29.4959 203.572 28.9566 202.34 28.6159C201.451 28.2751 200.562 28.0765 199.673 27.7358C197.179 26.8558 194.713 25.266 194.713 22.4839C194.713 18.2824 198.784 15.8125 202.683 15.8125C206.754 15.8125 210.137 17.9134 210.653 22.3135H204.461C204.461 21.0929 203.572 20.7238 202.511 20.7238C201.623 20.7238 200.734 21.2632 200.734 22.1148C200.734 25.266 211.197 23.5058 211.197 30.7166C211.227 34.9182 206.983 37.388 202.912 37.388Z" fill="#2A3B67"/>
<path d="M221.198 21.2723V37.2716H215.066V21.2723H212.086V16.6394H215.066V9.53174H221.198V16.4667H224.178V21.0996H221.198V21.2723Z" fill="#2A3B67"/>
<path d="M5.25946 28.2882C2.35532 28.2882 0 25.9252 0 23.0115C0 17.597 1.89798 12.3661 5.37379 8.21346C9.74143 3.00549 16.1442 0 22.9359 0C25.6799 0 28.3553 0.481795 30.9165 1.42244C33.6376 2.43192 35.0325 5.48329 34.0264 8.21346C33.0203 10.9436 29.9789 12.3431 27.2577 11.3336C25.8857 10.8289 24.4222 10.5536 22.9359 10.5536C19.2542 10.5536 15.7784 12.1826 13.423 15.0044C11.548 17.23 10.5189 20.0748 10.5189 23.0115C10.5189 25.9252 8.16359 28.2882 5.25946 28.2882Z" fill="#86C927"/>
<path d="M22.9358 46.0002C10.2902 46.0002 0 35.699 0 23.0117C0 20.0979 2.35532 17.7349 5.25945 17.7349C8.16359 17.7349 10.5189 20.0979 10.5189 23.0117C10.5189 29.8715 16.0757 35.4695 22.9358 35.4695C25.8399 35.4695 28.1952 37.8326 28.1952 40.7464C28.1952 43.66 25.8399 46.0002 22.9358 46.0002Z" fill="#00C4F2"/>
<path d="M5.25946 28.2882C2.35532 28.2882 0 25.9251 0 23.0114C0 17.597 1.89798 12.366 5.37379 8.2134C7.2489 5.98797 10.5646 5.68971 12.7828 7.57101C15.0009 9.4523 15.2981 12.7789 13.423 15.0045C11.548 17.2299 10.5189 20.0748 10.5189 23.0114C10.5189 25.9251 8.16359 28.2882 5.25946 28.2882Z" fill="#008ECC"/>
<path d="M22.9353 45.9997C20.0311 45.9997 17.6758 43.6366 17.6758 40.7228C17.6758 37.8092 20.0311 35.4461 22.9353 35.4461C27.3485 35.4461 31.3503 33.1747 33.6141 29.3433C35.1006 26.8426 38.3248 26.0166 40.8173 27.5079C43.3099 28.9992 44.1331 32.2341 42.6468 34.7348C38.5306 41.6864 30.9844 45.9997 22.9353 45.9997Z" fill="#007CBA"/>
<path d="M37.16 17.7807C35.5365 17.7807 33.9586 17.0466 32.9296 15.6242C31.489 13.6511 29.5223 12.1599 27.2356 11.3109C24.5145 10.3015 23.1196 7.2501 24.1257 4.51993C25.1318 1.78976 28.1732 0.390254 30.8944 1.39973C35.1019 2.98278 38.7378 5.73589 41.3904 9.36083C43.1054 11.701 42.6024 15.0047 40.27 16.7484C39.3553 17.4366 38.2576 17.7807 37.16 17.7807Z" fill="#00AD4E"/>
<path d="M38.1189 37.328C41.0235 37.328 43.3782 34.9655 43.3782 32.0512C43.3782 29.1368 41.0235 26.7744 38.1189 26.7744C35.2141 26.7744 32.8594 29.1368 32.8594 32.0512C32.8594 34.9655 35.2141 37.328 38.1189 37.328Z" fill="#4A40A3"/>
</g>
<defs>
<clipPath id="clip0_3074_3810">
<rect width="227" height="46" fill="white"/>
</clipPath>
</defs>
</svg>
