<svg width="227" height="46" viewBox="0 0 227 46" fill="none" xmlns="http://www.w3.org/2000/svg">
<g clip-path="url(#clip0_3074_4378)">
<path d="M71.1193 37.2711C63.0464 37.2711 56.3965 31.2553 56.3965 23.3177C56.3965 15.38 62.8722 9.53125 70.9449 9.53125C75.9687 9.53125 80.4697 11.7593 83.1413 15.9092C84.0415 17.2739 84.7675 18.6665 85.116 20.2262H77.5659C76.4914 17.4689 73.9651 15.5749 70.7417 15.5749C66.2407 15.5749 63.1915 19.1956 63.1915 23.3177C63.1915 27.4396 66.0664 31.2274 70.7417 31.2274C73.7909 31.2274 76.1139 29.3336 77.3916 26.7433H84.9417C83.6931 32.9543 77.9434 37.2711 71.1193 37.2711Z" fill="white"/>
<path d="M92.5952 25.7861V37.2717H86.6279V16.2488H92.2637V18.5749C93.2859 16.4232 94.9986 15.6963 97.2088 15.6963V21.977C94.6395 22.0061 92.5952 22.5295 92.5952 25.7861Z" fill="white"/>
<path d="M115.176 36.7372V34.3228C114.116 36.5561 111.45 37.4916 109.157 37.4916C102.765 37.4916 98.6943 32.2707 98.6943 25.9333C98.6943 19.5958 102.937 14.375 109.157 14.375C111.45 14.375 113.944 15.3104 115.176 17.3626V15.1295H121.368V37.2883H115.176V36.7372ZM109.845 20.32C106.835 20.32 104.714 22.7344 104.714 25.9032C104.714 28.8908 107.007 31.3051 109.845 31.3051C112.854 31.3051 114.976 28.8908 114.976 25.7221C115.176 22.5533 112.854 20.32 109.845 20.32Z" fill="white"/>
<path d="M144.067 21.2718V37.2711H137.848V21.2718H131.428V37.2711H125.209V21.2718H122.905V16.6389H125.209V16.0922C125.209 10.2219 130.19 9.67521 133.213 9.67521H134.106V14.308H133.386C132.838 14.308 131.428 14.4807 131.428 16.2648V16.6102H137.848V9.53125H144.067V16.4662H147.09V21.0991H144.067V21.2718Z" fill="white"/>
<path d="M162.065 37.2711V25.8759C162.065 23.5739 161.329 21.617 158.618 21.617C155.908 21.617 154.965 23.4012 154.965 25.7032V37.2711H148.602V9.53125H154.965V18.423C156.054 16.4662 158.236 15.7468 160.415 15.7468C162.418 15.7468 164.775 16.4662 166.249 18.0489C168.252 20.3509 168.252 22.8545 168.252 25.7032V37.2711H162.065Z" fill="white"/>
<path d="M181.856 37.2717C175.79 37.2717 171.274 32.7371 171.274 26.4841C171.274 20.2311 175.817 15.6963 181.856 15.6963C187.894 15.6963 192.436 20.2311 192.436 26.4841C192.436 32.7371 187.894 37.2717 181.856 37.2717ZM181.856 21.4141C179.162 21.4141 177.15 23.8645 177.15 26.4558C177.15 29.2443 179.162 31.4977 181.856 31.4977C184.548 31.4977 186.561 29.0472 186.561 26.4558C186.561 23.8645 184.548 21.4141 181.856 21.4141Z" fill="white"/>
<path d="M202.913 37.388C198.671 37.388 194.944 35.1169 194.571 30.5464H200.764C200.936 31.767 201.825 32.4768 203.057 32.4768C203.946 32.4768 205.178 31.9374 205.178 30.8869C205.178 29.4959 203.573 28.9566 202.341 28.6159C201.452 28.2751 200.563 28.0765 199.674 27.7358C197.18 26.8558 194.714 25.266 194.714 22.4839C194.714 18.2824 198.785 15.8125 202.684 15.8125C206.755 15.8125 210.138 17.9134 210.654 22.3135H204.462C204.462 21.0929 203.573 20.7238 202.512 20.7238C201.624 20.7238 200.735 21.2632 200.735 22.1148C200.735 25.266 211.198 23.5058 211.198 30.7166C211.228 34.9182 206.984 37.388 202.913 37.388Z" fill="white"/>
<path d="M221.198 21.2718V37.2711H215.066V21.2718H212.086V16.6389H215.066V9.53125H221.198V16.4662H224.178V21.0991H221.198V21.2718Z" fill="white"/>
<path d="M5.25946 28.2882C2.35532 28.2882 0 25.9252 0 23.0115C0 17.597 1.89798 12.3661 5.37379 8.21346C9.74143 3.00549 16.1442 0 22.9359 0C25.6799 0 28.3553 0.481795 30.9165 1.42244C33.6376 2.43192 35.0325 5.48329 34.0264 8.21346C33.0203 10.9436 29.9789 12.3431 27.2577 11.3336C25.8857 10.8289 24.4222 10.5536 22.9359 10.5536C19.2542 10.5536 15.7784 12.1826 13.423 15.0044C11.548 17.23 10.5189 20.0748 10.5189 23.0115C10.5189 25.9252 8.16359 28.2882 5.25946 28.2882Z" fill="#86C927"/>
<path d="M22.9358 45.9997C10.2902 45.9997 0 35.6985 0 23.0112C0 20.0975 2.35532 17.7344 5.25945 17.7344C8.16359 17.7344 10.5189 20.0975 10.5189 23.0112C10.5189 29.871 16.0757 35.469 22.9358 35.469C25.8399 35.469 28.1952 37.8321 28.1952 40.7459C28.1952 43.6595 25.8399 45.9997 22.9358 45.9997Z" fill="#00C4F2"/>
<path d="M5.25946 28.2882C2.35532 28.2882 0 25.9251 0 23.0114C0 17.597 1.89798 12.366 5.37379 8.2134C7.2489 5.98797 10.5646 5.68971 12.7828 7.57101C15.0009 9.4523 15.2981 12.7789 13.423 15.0045C11.548 17.2299 10.5189 20.0748 10.5189 23.0114C10.5189 25.9251 8.16359 28.2882 5.25946 28.2882Z" fill="#008ECC"/>
<path d="M22.9353 46.0002C20.0311 46.0002 17.6758 43.6371 17.6758 40.7233C17.6758 37.8097 20.0311 35.4466 22.9353 35.4466C27.3485 35.4466 31.3503 33.1752 33.6141 29.3438C35.1006 26.8431 38.3248 26.0171 40.8173 27.5084C43.3099 28.9997 44.1331 32.2346 42.6468 34.7353C38.5306 41.6869 30.9844 46.0002 22.9353 46.0002Z" fill="#007CBA"/>
<path d="M37.159 17.7812C35.5355 17.7812 33.9576 17.0471 32.9286 15.6247C31.488 13.6516 29.5214 12.1604 27.2346 11.3114C24.5135 10.302 23.1186 7.25059 24.1247 4.52042C25.1308 1.79024 28.1722 0.390743 30.8934 1.40022C35.101 2.98327 38.7368 5.73638 41.3894 9.36132C43.1045 11.7014 42.6014 15.0052 40.269 16.7488C39.3543 17.4371 38.2566 17.7812 37.159 17.7812Z" fill="#00AD4E"/>
<path d="M38.1189 37.328C41.0235 37.328 43.3782 34.9655 43.3782 32.0512C43.3782 29.1368 41.0235 26.7744 38.1189 26.7744C35.2141 26.7744 32.8594 29.1368 32.8594 32.0512C32.8594 34.9655 35.2141 37.328 38.1189 37.328Z" fill="#4A40A3"/>
</g>
<defs>
<clipPath id="clip0_3074_4378">
<rect width="227" height="46" fill="white"/>
</clipPath>
</defs>
</svg>
