<svg width="44" height="46" viewBox="0 0 44 46" fill="none" xmlns="http://www.w3.org/2000/svg">
<path d="M5.25946 28.2882C2.35532 28.2882 0 25.9252 0 23.0115C0 17.597 1.89798 12.3661 5.37379 8.21346C9.74143 3.00549 16.1442 0 22.9359 0C25.6799 0 28.3553 0.481795 30.9165 1.42244C33.6376 2.43192 35.0325 5.48329 34.0264 8.21346C33.0203 10.9436 29.9789 12.3431 27.2577 11.3336C25.8857 10.8289 24.4222 10.5536 22.9359 10.5536C19.2542 10.5536 15.7784 12.1826 13.423 15.0044C11.548 17.23 10.5189 20.0748 10.5189 23.0115C10.5189 25.9252 8.16359 28.2882 5.25946 28.2882Z" fill="#86C927"/>
<path d="M22.9358 46.0002C10.2902 46.0002 0 35.699 0 23.0117C0 20.0979 2.35532 17.7349 5.25945 17.7349C8.16359 17.7349 10.5189 20.0979 10.5189 23.0117C10.5189 29.8715 16.0757 35.4695 22.9358 35.4695C25.8399 35.4695 28.1952 37.8326 28.1952 40.7464C28.1952 43.66 25.8399 46.0002 22.9358 46.0002Z" fill="#00C4F2"/>
<path d="M5.25946 28.2882C2.35532 28.2882 0 25.9251 0 23.0114C0 17.597 1.89798 12.366 5.37379 8.2134C7.2489 5.98797 10.5646 5.68971 12.7828 7.57101C15.0009 9.4523 15.2981 12.7789 13.423 15.0045C11.548 17.2299 10.5189 20.0748 10.5189 23.0114C10.5189 25.9251 8.16359 28.2882 5.25946 28.2882Z" fill="#008ECC"/>
<path d="M22.9353 45.9997C20.0311 45.9997 17.6758 43.6366 17.6758 40.7228C17.6758 37.8092 20.0311 35.4461 22.9353 35.4461C27.3485 35.4461 31.3503 33.1747 33.6141 29.3433C35.1006 26.8426 38.3248 26.0166 40.8173 27.5079C43.3099 28.9992 44.1331 32.2341 42.6468 34.7348C38.5306 41.6864 30.9844 45.9997 22.9353 45.9997Z" fill="#007CBA"/>
<path d="M37.16 17.7807C35.5365 17.7807 33.9586 17.0466 32.9296 15.6242C31.489 13.6511 29.5223 12.1599 27.2356 11.3109C24.5145 10.3015 23.1196 7.2501 24.1257 4.51993C25.1318 1.78976 28.1732 0.390254 30.8944 1.39973C35.1019 2.98278 38.7378 5.73589 41.3904 9.36083C43.1054 11.701 42.6024 15.0047 40.27 16.7484C39.3553 17.4366 38.2576 17.7807 37.16 17.7807Z" fill="#00AD4E"/>
<path d="M38.1189 37.328C41.0235 37.328 43.3782 34.9655 43.3782 32.0512C43.3782 29.1368 41.0235 26.7744 38.1189 26.7744C35.2141 26.7744 32.8594 29.1368 32.8594 32.0512C32.8594 34.9655 35.2141 37.328 38.1189 37.328Z" fill="#4A40A3"/>
</svg>
