<svg width="83" height="46" viewBox="0 0 83 46" fill="none" xmlns="http://www.w3.org/2000/svg">
<path d="M0.00653076 0.86377H6.3899V7.24714H0.00653076V0.86377Z" fill="#FFF8E0"/>
<path d="M12.7727 0.86377H19.1561V7.24714H12.7727V0.86377Z" fill="#FFF8E0"/>
<path d="M25.5442 0.86377H31.9276V7.24714H25.5442V0.86377Z" fill="#FFF8E0"/>
<path d="M38.3114 0.86377H44.6948V7.24714H38.3114V0.86377Z" fill="#FFF8E0"/>
<path d="M6.38947 7.24707H12.7728V13.6304H6.38947V7.24707Z" fill="#FFF8E0"/>
<path d="M19.1567 7.24707H25.5401V13.6304H19.1567V7.24707Z" fill="#FFF8E0"/>
<path d="M31.9282 7.24707H38.3115V13.6304H31.9282V7.24707Z" fill="#FFF8E0"/>
<path d="M0.00628662 13.6301H6.38966V20.0135H0.00628662V13.6301Z" fill="#FFF8E0"/>
<path d="M12.7727 13.6301H19.1561V20.0135H12.7727V13.6301Z" fill="#FFF8E0"/>
<path d="M25.5442 13.6301H31.9276V20.0135H25.5442V13.6301Z" fill="#FFF8E0"/>
<path d="M38.3114 13.6301H44.6948V20.0135H38.3114V13.6301Z" fill="#FFF8E0"/>
<path d="M6.38947 20.0142H12.7728V26.3975H6.38947V20.0142Z" fill="#FFF8E0"/>
<path d="M19.1567 20.0142H25.5401V26.3975H19.1567V20.0142Z" fill="#FFF8E0"/>
<path d="M31.9282 20.0142H38.3115V26.3975H31.9282V20.0142Z" fill="#FFF8E0"/>
<path d="M0.00628662 26.4016H6.38966V32.785H0.00628662V26.4016Z" fill="#FFF8E0"/>
<path d="M12.7727 26.4016H19.1561V32.785H12.7727V26.4016Z" fill="#FFF8E0"/>
<path d="M25.5442 26.4016H31.9276V32.785H25.5442V26.4016Z" fill="#FFF8E0"/>
<path d="M38.3114 26.4016H44.6948V32.785H38.3114V26.4016Z" fill="#FFF8E0"/>
<path d="M6.38947 32.7856H12.7728V39.169H6.38947V32.7856Z" fill="#FFF8E0"/>
<path d="M19.1567 32.7856H25.5401V39.169H19.1567V32.7856Z" fill="#FFF8E0"/>
<path d="M31.9282 32.7856H38.3115V39.169H31.9282V32.7856Z" fill="#FFF8E0"/>
<path d="M0.00628662 39.1687H6.38966V45.5521H0.00628662V39.1687Z" fill="#FFF8E0"/>
<path d="M12.7727 39.1687H19.1561V45.5521H12.7727V39.1687Z" fill="#FFF8E0"/>
<path d="M25.5442 39.1687H31.9276V45.5521H25.5442V39.1687Z" fill="#FFF8E0"/>
<path d="M38.3114 39.1687H44.6948V45.5521H38.3114V39.1687Z" fill="#FFF8E0"/>
<path d="M38.3116 0.86377H44.695V7.24714H38.3116V0.86377Z" fill="#FFF8E0"/>
<path d="M51.078 0.86377H57.4614V7.24714H51.078V0.86377Z" fill="#FFF8E0"/>
<path d="M63.8494 0.86377H70.2328V7.24714H63.8494V0.86377Z" fill="#FFF8E0"/>
<path d="M76.6167 0.86377H83.0001V7.24714H76.6167V0.86377Z" fill="#FFF8E0"/>
<path d="M44.6948 7.24707H51.0782V13.6304H44.6948V7.24707Z" fill="#FFF8E0"/>
<path d="M57.462 7.24707H63.8454V13.6304H57.462V7.24707Z" fill="#FFF8E0"/>
<path d="M70.2335 7.24707H76.6168V13.6304H70.2335V7.24707Z" fill="#FFF8E0"/>
<path d="M38.3116 13.6301H44.695V20.0135H38.3116V13.6301Z" fill="#FFF8E0"/>
<path d="M51.078 13.6301H57.4614V20.0135H51.078V13.6301Z" fill="#FFF8E0"/>
<path d="M63.8494 13.6301H70.2328V20.0135H63.8494V13.6301Z" fill="#FFF8E0"/>
<path d="M76.6167 13.6301H83.0001V20.0135H76.6167V13.6301Z" fill="#FFF8E0"/>
<path d="M44.6948 20.0142H51.0782V26.3975H44.6948V20.0142Z" fill="#FFF8E0"/>
<path d="M57.462 20.0142H63.8454V26.3975H57.462V20.0142Z" fill="#FFF8E0"/>
<path d="M70.2335 20.0142H76.6168V26.3975H70.2335V20.0142Z" fill="#FFF8E0"/>
<path d="M38.3116 26.4016H44.695V32.785H38.3116V26.4016Z" fill="#FFF8E0"/>
<path d="M51.078 26.4016H57.4614V32.785H51.078V26.4016Z" fill="#FFF8E0"/>
<path d="M63.8494 26.4016H70.2328V32.785H63.8494V26.4016Z" fill="#FFF8E0"/>
<path d="M76.6167 26.4016H83.0001V32.785H76.6167V26.4016Z" fill="#FFF8E0"/>
<path d="M44.6948 32.7856H51.0782V39.169H44.6948V32.7856Z" fill="#FFF8E0"/>
<path d="M57.462 32.7856H63.8454V39.169H57.462V32.7856Z" fill="#FFF8E0"/>
<path d="M70.2335 32.7856H76.6168V39.169H70.2335V32.7856Z" fill="#FFF8E0"/>
<path d="M38.3116 39.1687H44.695V45.5521H38.3116V39.1687Z" fill="#FFF8E0"/>
<path d="M51.078 39.1687H57.4614V45.5521H51.078V39.1687Z" fill="#FFF8E0"/>
<path d="M63.8494 39.1687H70.2328V45.5521H63.8494V39.1687Z" fill="#FFF8E0"/>
<path d="M76.6167 39.1687H83.0001V45.5521H76.6167V39.1687Z" fill="#FFF8E0"/>
</svg>
