<svg xmlns="http://www.w3.org/2000/svg" viewBox="0 0 203.118 203.118">
    <path fill="#fdcc9b" d="M86.861 152.853h29.395v32.923H86.861z"/>
    <path d="M86.862 156.73s12.364 7.874 29.394 6.051v-9.929H86.862v3.878z" fill="#fcbc85"/>
    <ellipse cx="44.475" cy="101.803" rx="14.343" ry="16.364" fill="#fcbc85"/>
    <ellipse cx="158.643" cy="101.803" rx="14.343" ry="16.364" fill="#fcbc85"/>
    <path
        d="M158.585 70.547c0-24.103-17.637-41.74-57.025-41.74-39.39 0-57.026 17.637-57.026 41.74 0 24.104-4.115 87.597 57.026 87.597 61.14 0 57.025-63.493 57.025-87.597z"
        fill="#fdcc9b"/>
    <ellipse cx="73.783" cy="97.885" rx="6.173" ry="6.761" fill="#3b2519"/>
    <circle cx="71.092" cy="94.899" r="1.846" fill="#fff"/>
    <path d="M63.908 81.129c2.919 1.46 7.606-4.96 18.335.625 1.956 1.018 3.123-8.708-8.377-8.708-9.958 0-11.721 7.202-9.958 8.083z" fill="#4c2d19"/>
    <ellipse cx="130.098" cy="97.885" rx="6.173" ry="6.761" fill="#3b2519"/>
    <circle cx="127.406" cy="94.899" r="1.846" fill="#fff"/>
    <path d="M139.21 81.129c-2.919 1.46-7.607-4.96-18.335.625-1.956 1.018-3.123-8.708 8.377-8.708 9.958 0 11.722 7.202 9.958 8.083z" fill="#4c2d19"/>
    <path
        d="M101.56 121.665c-6.1 0-9.774-4.557-9.774-2.352 0 2.204 1.764 6.394 9.774 6.394s9.773-4.189 9.773-6.394-3.675 2.352-9.773 2.352zM101.56 141.936c-2.11 0-3.381-1.576-3.381-.813s.609 2.212 3.381 2.212c2.77 0 3.38-1.449 3.38-2.212s-1.271.813-3.38.813z"
        fill="#fcbc85"/>
    <path
        d="M101.56 136.318c-9.669 0-15.493-3.938-15.493-2.939 0 .997 2.796 4.924 15.493 4.924 12.696 0 15.492-3.927 15.492-4.924 0-.998-5.824 2.939-15.492 2.939z"
        fill="#f7945e"/>
    <path d="M101.56 166.08v37.038H30.132c0-14.991 37.623-37.038 71.428-37.038zM101.56 166.08v37.038h71.427c-.001-14.991-37.624-37.038-71.427-37.038z"
          fill="#f6a4b7"/>
    <path d="M86.861 167.362s4.299 5.332 14.697 5.332 14.697-5.332 14.697-5.332-15.247-5.551-29.394 0z" fill="#fdcc9b"/>
    <path
        d="M80.836 203.118l-3.04-33.805s-6.456-.891-14.215 4.746l-6.445 29.059h23.7zM101.559 172.694v30.424H91.418l1.984-13.999-5.842-6.174zM122.282 203.118l3.04-33.805s6.456-.891 14.215 4.746l6.444 29.059h-23.699zM101.56 172.694v30.424h10.14l-1.984-13.999 5.843-6.174z"
        fill="#665853"/>
    <path
        d="M116.256 163.729l-14.697 8.966 15.493 15.433 11.51-17.912c0-.001-7.529-7.409-12.306-6.487zM86.861 163.729l14.697 8.966-15.492 15.433-11.51-17.912c.001-.001 7.529-7.409 12.305-6.487z"
        fill="#f2788f"/>
    <path
        d="M164.611 28.659c-1.384-2.727-5.291-3.086-7.349-4.262-2.059-1.176-2.059-6.173-5.879-8.23-3.821-2.058-4.41 1.176-7.084.588-2.675-.588-5.263-5.879-8.792-7.055-3.53-1.177-6.759 1.176-9.404.587-2.645-.587-4.409-6.173-9.052-5.878-4.643.294-4.764 3.527-5.719 3.233C110.378 7.349 107.291 0 101.56 0c-5.732 0-8.819 7.349-9.774 7.643-.955.294-1.076-2.939-5.719-3.233-4.643-.295-6.406 5.291-9.052 5.878-2.646.589-5.874-1.764-9.404-.587-3.529 1.176-6.117 6.467-8.792 7.055-2.674.588-3.262-2.646-7.084-.588-3.82 2.058-3.82 7.055-5.878 8.23-2.059 1.176-5.965 1.535-7.35 4.262-4.997 9.848 3.944 79.298 7.8 79.298 3.855 0 1.607-35.353 7.486-48.874 5.878-13.521 28.513-1.764 47.767-1.764 19.253 0 41.887-11.758 47.767 1.764 5.878 13.521 3.63 48.874 7.485 48.874 3.855-.001 12.796-69.451 7.799-79.299z"
        fill="#4c2d19"/>
</svg>
