<svg width="50" height="50" viewBox="0 0 50 50" fill="none" xmlns="http://www.w3.org/2000/svg">
<path fill-rule="evenodd" clip-rule="evenodd" d="M18.7007 44.4632C18.7192 44.975 18.5612 45.4669 18.3503 45.8692C17.8993 46.6752 17.0262 47.1222 16.0355 47.1429L14.2245 47.1182C13.2608 47.1087 12.3547 46.5894 11.8843 45.7949C11.6525 45.4032 11.5064 44.9035 11.519 44.4189C11.5376 44.0205 11.4062 43.6468 11.1942 43.2887C10.5384 42.1808 9.05673 41.7767 7.92536 42.369C6.63422 43.0961 5.01432 42.6355 4.25252 41.3485L3.3516 39.8265C2.58317 38.5283 2.98418 36.9297 4.27531 36.2027C5.37357 35.5544 5.75561 34.1007 5.09979 32.9928C4.88119 32.6235 4.61509 32.3257 4.25862 32.1534C3.82209 31.9217 3.44484 31.5373 3.21961 31.1568C2.74266 30.351 2.73466 29.3259 3.20811 28.5072L4.09829 26.9763C4.58296 26.1513 5.44544 25.6358 6.38664 25.6579C6.82944 25.6473 7.36499 25.7933 7.80354 26.0537C8.14621 26.2785 8.52367 26.3346 8.93942 26.3541C10.2362 26.3699 11.3061 25.3198 11.3157 24.0461C11.2998 22.5778 12.5137 21.4167 14.0028 21.4287L15.7714 21.4324C17.2671 21.4556 18.4815 22.622 18.4928 24.1079C18.5302 25.385 19.638 26.4473 20.9302 26.4806C21.3505 26.4826 21.747 26.3937 22.0705 26.1816C22.4951 25.9127 22.9834 25.8018 23.4461 25.8248C24.3873 25.8469 25.2802 26.3438 25.7863 27.1481L26.7203 28.7261C27.2105 29.5542 27.1828 30.5696 26.7318 31.3756C26.5142 31.7667 26.1783 32.135 25.7206 32.348C25.3705 32.5153 25.0933 32.8057 24.8849 33.1617C24.2685 34.2699 24.6577 35.7368 25.7796 36.4182C27.0866 37.1594 27.5217 38.7796 26.7878 40.0434L25.9068 41.5393C25.1795 42.8143 23.5417 43.2591 22.2393 42.5003C21.1036 41.8715 19.6362 42.2502 19.0085 43.3647C18.8114 43.7145 18.6724 44.0613 18.7007 44.4632ZM13.1432 31.1042C11.3805 32.0968 10.8184 34.3084 11.8584 36.0654C12.8984 37.8225 15.1233 38.4199 16.8859 37.4272C18.6486 36.4346 19.2418 34.2503 18.2018 32.4933C17.1618 30.7363 14.9058 30.1116 13.1432 31.1042Z" stroke="#848DA0" stroke-width="3"/>
<path fill-rule="evenodd" clip-rule="evenodd" d="M40.19 22.0527C40.2052 22.4792 40.0751 22.8891 39.9014 23.2243C39.53 23.896 38.8109 24.2685 37.9951 24.2858L36.5037 24.2652C35.7101 24.2573 34.9638 23.8246 34.5765 23.1624C34.3856 22.836 34.2653 22.4196 34.2756 22.0158C34.2909 21.6838 34.1828 21.3724 34.0082 21.0739C33.4681 20.1507 32.2479 19.8139 31.3162 20.3075C30.2529 20.9134 28.9188 20.5296 28.2915 19.4571L27.5495 18.1888C26.9167 17.107 27.247 15.7748 28.3103 15.1689C29.2147 14.6286 29.5293 13.4173 28.9892 12.494C28.8092 12.1863 28.5901 11.9381 28.2965 11.7945C27.937 11.6014 27.6263 11.2811 27.4409 10.964C27.0481 10.2925 27.0415 9.4383 27.4314 8.75604L28.1645 7.48031C28.5636 6.79278 29.2739 6.36317 30.049 6.38158C30.4137 6.37273 30.8547 6.49445 31.2159 6.71143C31.498 6.8988 31.8089 6.94549 32.1513 6.96177C33.2192 6.97497 34.1003 6.09983 34.1082 5.03841C34.0951 3.81483 35.0948 2.84727 36.3211 2.85725L37.7776 2.86039C39.0094 2.8797 40.0095 3.85172 40.0187 5.0899C40.0496 6.15416 40.9619 7.0394 42.026 7.06719C42.3722 7.06888 42.6987 6.99475 42.9651 6.81804C43.3148 6.59391 43.7169 6.50156 44.098 6.52069C44.8731 6.53909 45.6084 6.95319 46.0251 7.62345L46.7944 8.93841C47.1981 9.62854 47.1752 10.4747 46.8038 11.1464C46.6246 11.4723 46.348 11.7792 45.9711 11.9567C45.6828 12.0961 45.4545 12.3381 45.2829 12.6348C44.7752 13.5583 45.0958 14.7807 46.0197 15.3485C47.096 15.9662 47.4543 17.3163 46.8499 18.3695L46.1244 19.6161C45.5255 20.6786 44.1767 21.0493 43.1041 20.417C42.1689 19.893 40.9604 20.2086 40.4435 21.1373C40.2811 21.4288 40.1666 21.7178 40.19 22.0527ZM35.6132 10.9202C34.1616 11.7474 33.6986 13.5904 34.5551 15.0546C35.4116 16.5187 37.2439 17.0166 38.6955 16.1894C40.1471 15.3622 40.6356 13.5419 39.7791 12.0778C38.9226 10.6136 37.0648 10.093 35.6132 10.9202Z" stroke="#848DA0" stroke-width="3"/>
</svg>
