<?xml version="1.0" encoding="iso-8859-1"?>
<!-- Generator: Adobe Illustrator 19.0.0, SVG Export Plug-In . SVG Version: 6.00 Build 0)  -->
<svg version="1.1" id="Layer_1" xmlns="http://www.w3.org/2000/svg" xmlns:xlink="http://www.w3.org/1999/xlink" x="0px" y="0px"
	 viewBox="0 0 503.607 503.607" style="enable-background:new 0 0 503.607 503.607;" xml:space="preserve">
<g>
	<g>
		<g>
			<path d="M251.803,209.836c-50.906,0-92.328,41.422-92.328,92.328s41.422,92.328,92.328,92.328s92.328-41.422,92.328-92.328
				S302.71,209.836,251.803,209.836z M291.311,282.918c-1.637,1.637-3.785,2.459-5.934,2.459c-2.149,0-4.297-0.823-5.934-2.459
				l-19.246-19.246v97.246c0,4.633-3.752,8.393-8.393,8.393c-4.642,0-8.393-3.76-8.393-8.393v-97.246l-19.246,19.246
				c-1.637,1.637-3.785,2.459-5.934,2.459c-2.149,0-4.297-0.823-5.934-2.459c-3.282-3.282-3.282-8.586,0-11.868l33.565-33.565
				c0.772-0.781,1.704-1.393,2.736-1.821c2.048-0.848,4.365-0.848,6.413,0c1.032,0.428,1.956,1.041,2.736,1.821l33.565,33.565
				C294.593,274.331,294.593,279.636,291.311,282.918z"/>
			<path d="M386.098,58.754h-41.967v-8.511c0-9.191-7.529-16.669-16.787-16.669h-25.18v-8.511C302.164,11.239,290.866,0,276.984,0
				h-50.361c-13.883,0-25.18,11.239-25.18,25.063v8.511h-25.18c-9.258,0-16.787,7.479-16.787,16.669v8.511h-41.967
				c-23.141,0-41.967,18.826-41.967,41.967v360.918c0,23.141,18.826,41.967,41.967,41.967h268.59
				c23.141,0,41.967-18.826,41.967-41.967V100.721C428.066,77.581,409.239,58.754,386.098,58.754z M176.262,67.148V50.361h33.574
				c4.642,0,8.393-3.76,8.393-8.393V25.063c0-4.642,3.685-8.276,8.393-8.276h50.361c4.709,0,8.393,3.634,8.393,8.276v16.904
				c0,4.633,3.752,8.393,8.393,8.393l33.574-0.117l-0.126,58.872H176.262V67.148z M251.803,411.279
				c-60.164,0-109.115-48.951-109.115-109.115s48.951-109.115,109.115-109.115S360.918,242,360.918,302.164
				S311.967,411.279,251.803,411.279z"/>
		</g>
	</g>
</g>
<g>
</g>
<g>
</g>
<g>
</g>
<g>
</g>
<g>
</g>
<g>
</g>
<g>
</g>
<g>
</g>
<g>
</g>
<g>
</g>
<g>
</g>
<g>
</g>
<g>
</g>
<g>
</g>
<g>
</g>
</svg>
