<?xml version="1.0" encoding="iso-8859-1"?>
<!-- Generator: Adobe Illustrator 19.0.0, SVG Export Plug-In . SVG Version: 6.00 Build 0)  -->
<svg version="1.1" id="Layer_1" xmlns="http://www.w3.org/2000/svg" xmlns:xlink="http://www.w3.org/1999/xlink" x="0px" y="0px"
	 viewBox="0 0 503.607 503.607" style="enable-background:new 0 0 503.607 503.607;" xml:space="preserve">
<g>
	<g>
		<g>
			<path d="M296.926,246.356c3.324,6.715,5.238,14.244,5.238,22.226c0,27.774-22.587,50.361-50.352,50.361
				c-27.774,0-50.369-22.587-50.369-50.361c0-8.511,2.14-16.527,5.892-23.569c-20.346,9.661-38.979,26.104-54.549,48.741
				c26.02,37.552,60.265,58.368,96.911,58.763c37.384,0.504,73.132-20.396,100.948-58.737
				C334.865,272.174,316.559,256.168,296.926,246.356z"/>
			<path d="M251.81,302.16c18.516,0,33.574-15.058,33.574-33.574c0-18.231-14.63-33.045-32.76-33.49
				c-0.445-0.008-0.881-0.025-1.326-0.034c-18.273,0.285-33.062,15.184-33.062,33.523C218.236,287.102,233.294,302.16,251.81,302.16
				z"/>
			<path d="M386.098,58.754h-41.967v-8.519c0-9.191-7.529-16.661-16.787-16.661h-25.18v-8.519C302.164,11.239,290.866,0,276.984,0
				h-50.352c-13.883,0-25.189,11.239-25.189,25.054v8.519h-25.18c-9.258,0-16.787,7.47-16.787,16.661v8.519h-41.967
				c-23.141,0-41.967,18.826-41.967,41.967v360.918c0,23.132,18.827,41.967,41.967,41.967h268.59
				c23.141,0,41.967-18.835,41.967-41.967V100.721C428.066,77.581,409.239,58.754,386.098,58.754z M176.262,67.148V50.361h33.574
				c4.642,0,8.393-3.76,8.393-8.393V25.054c0-4.633,3.693-8.268,8.402-8.268h50.352c4.709,0,8.393,3.634,8.393,8.268v16.913
				c0,4.633,3.76,8.393,8.393,8.393l33.574-0.126l-0.126,58.88H176.262V67.148z M367.851,298.504
				c-31.232,45.702-72.763,70.807-117.055,70.807h-1.276c-43.906-0.487-84.337-25.684-113.865-70.958l-2.971-4.566l2.954-4.574
				c29.201-45.148,69.38-70.354,113.127-70.983c0.562-0.008,1.133-0.008,1.695-0.008c0.294,0,0.588,0.025,0.89,0.025
				c0.151,0,0.302-0.017,0.462-0.017c0.881,0,1.746,0.084,2.619,0.126c42.79,1.46,82.877,26.313,113.404,70.656l3.265,4.742
				L367.851,298.504z"/>
		</g>
	</g>
</g>
<g>
</g>
<g>
</g>
<g>
</g>
<g>
</g>
<g>
</g>
<g>
</g>
<g>
</g>
<g>
</g>
<g>
</g>
<g>
</g>
<g>
</g>
<g>
</g>
<g>
</g>
<g>
</g>
<g>
</g>
</svg>
