<svg id="svg16" height="512" viewBox="0 0 64 64" width="512" xmlns="http://www.w3.org/2000/svg" xmlns:osb="http://www.openswatchbook.org/uri/2009/osb"><path id="path816" d="m28.830078 5.2226562a1.50015 1.50015 0 0 0 -.11328124.0097656c-13.516009 1.6562371-23.700039 13.148528-23.716797 26.765625a1.50015 1.50015 0 0 0 0 .00195312c0 14.893921 12.106079 27 27 27a1.50015 1.50015 0 0 0 .001953 0c13.622414-.01180228 25.120589-10.199168 26.775391-23.720703a1.50015 1.50015 0 0 0 -2.3164062-1.4335938c-3.1031886 2.052778-6.7402594 3.1500791-10.460938 3.1542969-10.511177 0-19-8.4888228-19-19 .0049146-3.7172244 1.1005876-7.3521086 3.1503906-10.453125a1.50015 1.50015 0 0 0 -1.3203125-2.3242188zm-2.5546875 3.5976562c-1.34796 2.8912692-2.2714692 5.9619028-2.2753906 9.1777344a1.50015 1.50015 0 0 0 0 .00195312c0 12.132498 9.8675025 22 22 22a1.50015 1.50015 0 0 0 .001953 0c3.2191299-.003319 6.2936436-.92729248 9.1875-2.2773438-2.605074 10.591259-12.034872 18.266776-23.189453 18.277344-13.271938 0-23.998929-10.726363-24-23.998047v-.00195312c.01462536-11.150429 7.6880418-20.574659 18.275391-23.179688z" font-feature-settings="normal" font-variant-alternates="normal" font-variant-caps="normal" font-variant-ligatures="normal" font-variant-numeric="normal" font-variant-position="normal" isolation="auto" mix-blend-mode="normal" paint-order="fill markers stroke" shape-padding="0" solid-color="rgb(0,0,0)" text-decoration-color="rgb(0,0,0)" text-decoration-line="none" text-decoration-style="solid" text-indent="0" text-orientation="mixed" text-transform="none" white-space="normal"/></svg>