<svg xmlns="http://www.w3.org/2000/svg" viewBox="0 0 20 20"><path d="M4.286 0H1.429A1.43 1.43 0 0 0 0 1.429v2.456c0 .789.64 1.429 1.429 1.429h2.857a1.43 1.43 0 0 0 1.428-1.429V1.43C5.714.64 5.074 0 4.286 0zm14.277 0H8.571a1.43 1.43 0 0 0-1.428 1.429v2.456c0 .789.64 1.429 1.428 1.429h9.992a1.43 1.43 0 0 0 1.429-1.429V1.43A1.43 1.43 0 0 0 18.563 0zM4.286 7.343H1.429A1.43 1.43 0 0 0 0 8.77v2.457c0 .789.64 1.429 1.429 1.429h2.857a1.43 1.43 0 0 0 1.428-1.429V8.771a1.43 1.43 0 0 0-1.428-1.428zm14.277 0H8.571A1.43 1.43 0 0 0 7.143 8.77v2.457c0 .789.64 1.429 1.428 1.429h9.992a1.43 1.43 0 0 0 1.429-1.429V8.771a1.43 1.43 0 0 0-1.429-1.428zM4.286 14.686H1.429A1.43 1.43 0 0 0 0 16.114v2.457C0 19.36.64 20 1.429 20h2.857a1.43 1.43 0 0 0 1.428-1.429v-2.457c0-.788-.64-1.428-1.428-1.428zm14.277 0H8.571a1.43 1.43 0 0 0-1.428 1.428v2.457c0 .789.64 1.429 1.428 1.429h9.992a1.43 1.43 0 0 0 1.429-1.429v-2.457a1.43 1.43 0 0 0-1.429-1.428z"/></svg>