<svg id="Capa_1" enable-background="new 0 0 512 512" height="512" viewBox="0 0 512 512" width="512" xmlns="http://www.w3.org/2000/svg"><path d="m346 376h91v30h-91z" fill="#4bb9ec"/><path d="m75 376h91v30h-91z" fill="#76e2f8"/><path d="m512 241c0 41.35-33.65 75-75 75h-362c-41.35 0-75-33.65-75-75 0-36.53 26.25-67.05 60.89-73.67 6.72-51.46 50.85-91.33 104.11-91.33 5.28 0 11 .48 16.69 1.39 19.75-20.05 46.37-31.39 74.31-31.39s54.56 11.34 74.31 31.39c5.69-.91 11.41-1.39 16.69-1.39 53.26 0 97.39 39.87 104.11 91.33 34.64 6.62 60.89 37.14 60.89 73.67z" fill="#edf5ff"/><path d="m512 241c0 41.35-33.65 75-75 75h-181v-270c27.94 0 54.56 11.34 74.31 31.39 5.69-.91 11.41-1.39 16.69-1.39 53.26 0 97.39 39.87 104.11 91.33 34.64 6.62 60.89 37.14 60.89 73.67z" fill="#d5e8fe"/><path d="m256 256c-57.9 0-105 47.1-105 105s47.1 105 105 105 105-47.1 105-105-47.1-105-105-105z" fill="#ff8859"/><path d="m361 361c0 57.9-47.1 105-105 105v-210c57.9 0 105 47.1 105 105z" fill="#ff3939"/><path d="m277.21 361 21.22 21.21-21.22 21.22-21.21-21.22-21.21 21.22-21.22-21.22 21.22-21.21-21.22-21.21 21.22-21.22 21.21 21.22 21.21-21.22 21.22 21.22z" fill="#edf5ff"/><path d="m277.21 361 21.22 21.21-21.22 21.22-21.21-21.22v-42.42l21.21-21.22 21.22 21.22z" fill="#d5e8fe"/><path d="m45 436c-24.813 0-45-20.187-45-45s20.187-45 45-45 45 20.187 45 45-20.187 45-45 45z" fill="#76e2f8"/><path d="m467 436c-24.813 0-45-20.187-45-45s20.187-45 45-45 45 20.187 45 45-20.187 45-45 45z" fill="#4bb9ec"/></svg>