<svg width="24" height="24" viewBox="0 0 24 24" fill="none" xmlns="http://www.w3.org/2000/svg">
<path fill-rule="evenodd" clip-rule="evenodd" d="M16.733 3.97651H7.27297C5.45218 3.97651 3.97614 5.45255 3.97614 7.27334V16.7334C3.97614 18.5542 5.45218 20.0302 7.27297 20.0302H16.733C18.5538 20.0302 20.0298 18.5542 20.0298 16.7334V7.27334C20.0298 5.45255 18.5538 3.97651 16.733 3.97651ZM7.27297 1.99841C4.35971 1.99841 1.99805 4.36007 1.99805 7.27334V16.7334C1.99805 19.6466 4.35971 22.0083 7.27297 22.0083H16.733C19.6463 22.0083 22.0079 19.6466 22.0079 16.7334V7.27334C22.0079 4.36008 19.6463 1.99841 16.733 1.99841H7.27297Z" fill="#61BDF6"/>
<path d="M11.9319 15.0866C11.992 15.0974 12.0655 15.1063 12.0848 15.1643C12.1055 15.2265 12.0458 15.2813 11.9995 15.3277L10.7753 16.5539C10.5674 16.7621 10.3284 16.9287 10.0582 17.0536C9.78797 17.1785 9.51256 17.2513 9.23196 17.2722C8.95135 17.293 8.67075 17.2722 8.39015 17.2097C8.10955 17.1473 7.85492 17.0171 7.62629 16.8194C7.34568 16.6008 7.12744 16.3353 6.97155 16.023C6.81565 15.7108 6.73251 15.3985 6.72212 15.0862C6.71173 14.7739 6.75849 14.4564 6.86242 14.1338C6.96635 13.8111 7.14302 13.53 7.39245 13.2906L9.40344 11.2764C9.72561 10.9537 10.0997 10.7143 10.5258 10.5582C10.9519 10.402 11.3884 10.3604 11.8353 10.4333C12.2303 10.4957 12.542 10.6102 12.7707 10.7768C12.9624 10.9164 13.1212 11.0744 13.2472 11.2506C13.2955 11.3182 13.3671 11.4128 13.3085 11.4716C13.2825 11.4976 13.2539 11.521 13.2228 11.5418C13.1916 11.5627 13.1552 11.5939 13.1136 11.6355L13.0045 11.7448C12.9006 11.8593 12.7759 11.9166 12.6304 11.9166C12.4849 11.9166 12.3524 11.8567 12.2328 11.737C12.1133 11.6173 11.9808 11.5262 11.8353 11.4638C11.6898 11.4013 11.5287 11.3753 11.3521 11.3857C11.1754 11.3961 11.0195 11.4221 10.8844 11.4638C10.7493 11.5054 10.609 11.5991 10.4635 11.7448L8.15631 14.0557C8.02121 14.191 7.92248 14.3472 7.86012 14.5241C7.79776 14.7011 7.77698 14.878 7.79776 15.055C7.81855 15.2319 7.87051 15.4089 7.95366 15.5859C8.0368 15.7628 8.1719 15.9033 8.35897 16.0074C8.61879 16.1844 8.89939 16.2468 9.20078 16.1948C9.50217 16.1428 9.75679 16.0178 9.96464 15.8201L10.887 14.9106C10.9371 14.8613 10.993 14.7893 11.0559 14.8208C11.3393 14.9438 11.6313 15.0324 11.9319 15.0866ZM16.3562 7.20116C16.6368 7.41976 16.855 7.67999 17.0109 7.98186C17.1668 8.28373 17.2551 8.59601 17.2759 8.9187C17.2967 9.24139 17.2499 9.56408 17.1356 9.88676C17.0213 10.2095 16.8394 10.4905 16.59 10.7299L14.579 12.7441C14.2568 13.0668 13.8827 13.301 13.4566 13.4467C13.0305 13.5925 12.5888 13.6341 12.1315 13.5717C11.7366 13.5196 11.43 13.4051 11.2118 13.2281C11.0275 13.0787 10.8692 12.9182 10.7368 12.7466C10.6883 12.6837 10.6256 12.5973 10.6817 12.5411L10.9623 12.2601C11.0767 12.156 11.2066 12.1039 11.3521 12.1039C11.4976 12.1039 11.6223 12.156 11.7262 12.2601C11.8509 12.385 11.9912 12.4787 12.1471 12.5411C12.303 12.6036 12.4641 12.6348 12.6304 12.6348C12.7967 12.6348 12.9577 12.6036 13.1136 12.5411C13.2695 12.4787 13.4046 12.385 13.5189 12.2601L15.8261 9.96483C15.9612 9.82951 16.06 9.66817 16.1223 9.4808C16.1847 9.29343 16.2055 9.11127 16.1847 8.93431C16.1639 8.75735 16.1067 8.5856 16.0132 8.41905C15.9197 8.2525 15.7846 8.11198 15.6079 7.99748C15.3585 7.83093 15.083 7.76847 14.7817 7.81011C14.4803 7.85175 14.2205 7.98186 14.0022 8.20046L13.0201 9.18414C12.971 9.23332 12.8946 9.18558 12.8301 9.15975C12.5929 9.06477 12.3359 8.98632 12.0591 8.92437C11.9933 8.90966 11.8977 8.90798 11.8977 8.84063C11.8977 8.79899 11.9029 8.77297 11.9133 8.76256L13.2072 7.4666C13.415 7.25842 13.6541 7.09187 13.9243 6.96696C14.1945 6.84204 14.4647 6.76397 14.7349 6.73275C15.0051 6.70152 15.2857 6.72754 15.5767 6.81082C15.8677 6.89409 16.1275 7.02421 16.3562 7.20116Z" fill="#61BDF6"/>
</svg>
