<svg xmlns="http://www.w3.org/2000/svg" viewBox="0 0 491.9 491.9"><path d="M418.45 315c-44.9-36.9-93.5-62-106.1-68.3v-67.4c9.5-7.5 15.1-18.9 15.1-31.1V73.4c0-40.5-32.9-73.4-73.4-73.4h-16.1c-40.5 0-73.4 32.9-73.4 73.4v74.8c0 12.2 5.6 23.6 15.1 31.1v67.4c-12.7 6.3-61.3 31.4-106.2 68.3-9.8 8-15.4 19.9-15.4 32.6v51.3c0 3.3 2.7 6 6 6s6-2.7 6-6v-51.3c0-9.1 4-17.6 11-23.4 45.9-37.7 95.8-62.9 105.3-67.5 3.2-1.6 5.2-4.8 5.2-8.4v-72.1c0-2-1-3.9-2.7-5-7.8-5.2-12.4-13.8-12.4-23.1V73.4c0-33.8 27.5-61.4 61.4-61.4h16.1c33.8 0 61.4 27.5 61.4 61.4v74.8c0 9.3-4.6 17.9-12.4 23.1-1.7 1.1-2.7 3-2.7 5v72.1c0 3.6 2 6.8 5.2 8.4 9.5 4.7 59.3 29.8 105.3 67.5 7 5.7 11 14.3 11 23.4V399c.1 3.2 2.8 5.9 6.1 5.9s6-2.7 6-6v-51.3c0-12.7-5.6-24.6-15.4-32.6z"/><path d="M276.75 269.1c0-3.3-2.7-6-6-6s-6 2.7-6 6c0 5.6-2.4 10.5-6.3 14-.6.3-1.2.8-1.6 1.3-3.1 2.2-6.8 3.5-10.9 3.5-10.4 0-18.8-8.4-18.8-18.8 0-3.3-2.7-6-6-6s-6 2.7-6 6c0 7.8 2.9 15 7.8 20.4l-7.5 174.8c-.1 1.8.6 3.5 2 4.7l23.8 21.4c1.1 1 2.6 1.5 4 1.5s2.9-.5 4-1.5l24.1-21.8c1.3-1.2 2.1-2.9 2-4.7l-7.9-172.9c5.7-5.5 9.3-13.3 9.3-21.9zM245.15 478l-17.6-16 7.1-164.3c3.5 1.4 7.3 2.2 11.3 2.2 3.4 0 6.7-.6 9.8-1.6l7.4 163.4-18 16.3z"/></svg>