<svg xmlns="http://www.w3.org/2000/svg" viewBox="0 0 60 60"><g><path d="M28 36.5h-4v-14c0-3.9-3.1-7-7-7H7c-3.9 0-7 3.1-7 7v14h2v-14c0-2.8 2.2-5 5-5h1.3l2.8 7.4c.1.3.5.6.9.6s.8-.3 1.1-.6l2.8-7.4H17c2.8 0 5 2.2 5 5v14h-3v-13h-2v33h-4v-19h-2v19H7v-33H5v34c0 .6.4 1 1 1h12c.6 0 1-.4 1-1v-9h9c.6 0 1-.4 1-1v-10c0-.6-.4-1-1-1zM12.1 21.7l-1.6-4.2h3.2l-1.6 4.2zM27 46.5h-8v-8h8v8zM53 15.5H43c-3.9 0-7 3.1-7 7v14h-4c-.6 0-1 .4-1 1v10c0 .6.4 1 1 1h9v9c0 .6.4 1 1 1h12c.6 0 1-.4 1-1v-34h-2v33h-4v-19h-2v19h-4v-33h-2v13h-3v-14c0-2.8 2.2-5 5-5h1.3l2.8 7.4c.1.3.5.6.9.6s.8-.3 1.1-.6l2.8-7.4H53c2.8 0 5 2.2 5 5v14h2v-14c0-3.9-3.1-7-7-7zm-12 23v8h-8v-8h8zm7.1-16.8l-1.6-4.2h3.2l-1.6 4.2z"/><path d="M47 27.5h2v2h-2zM11 27.5h2v2h-2zM11 31.5h2v2h-2zM47 31.5h2v2h-2zM11 14.5h2c2.8 0 5-2.2 5-5v-3c0-2.8-2.2-5-5-5h-2c-2.8 0-5 2.2-5 5v3c0 2.8 2.2 5 5 5zm-3-8c0-1.7 1.3-3 3-3h2c1.7 0 3 1.3 3 3v3c0 1.7-1.3 3-3 3h-2c-1.7 0-3-1.3-3-3v-3zM47 14.5h2c2.8 0 5-2.2 5-5v-3c0-2.8-2.2-5-5-5h-2c-2.8 0-5 2.2-5 5v3c0 2.8 2.2 5 5 5zm-3-8c0-1.7 1.3-3 3-3h2c1.7 0 3 1.3 3 3v3c0 1.7-1.3 3-3 3h-2c-1.7 0-3-1.3-3-3v-3z"/></g></svg>