<svg width="50" height="50" viewBox="0 0 50 50" fill="none" xmlns="http://www.w3.org/2000/svg">
<path fill-rule="evenodd" clip-rule="evenodd" d="M15.1538 8.28655H34.8592C38.652 8.28655 41.7266 11.3612 41.7266 15.1539V34.8594C41.7266 38.6521 38.652 41.7267 34.8592 41.7267H15.1538C11.361 41.7267 8.28643 38.6521 8.28643 34.8593V15.1539C8.28643 11.3612 11.361 8.28655 15.1538 8.28655ZM4.16602 15.1539C4.16602 9.08552 9.08541 4.16614 15.1538 4.16614H34.8592C40.9276 4.16614 45.847 9.08553 45.847 15.1539V34.8594C45.847 40.9277 40.9276 45.8471 34.8592 45.8471H15.1538C9.0854 45.8471 4.16602 40.9277 4.16602 34.8593V15.1539ZM22.6488 33.8492C22.6488 32.5459 23.7054 31.4893 25.0087 31.4893C26.312 31.4893 27.3685 32.5459 27.3685 33.8492C27.3685 35.1525 26.312 36.209 25.0087 36.209C23.7054 36.209 22.6488 35.1525 22.6488 33.8492ZM25.0067 29.3441C23.6802 29.3441 22.6049 28.2688 22.6049 26.9423L22.6049 16.2084C22.6049 14.8819 23.6802 13.8065 25.0067 13.8065C26.3332 13.8065 27.4086 14.8819 27.4086 16.2084V26.9423C27.4086 28.2688 26.3332 29.3441 25.0067 29.3441Z" fill="#848DA0"/>
</svg>
