<svg width="50" height="50" viewBox="0 0 50 50" fill="none" xmlns="http://www.w3.org/2000/svg">
<path fill-rule="evenodd" clip-rule="evenodd" d="M13.4982 9.46732C14.0947 9.35309 14.8535 9.34466 16.8984 9.34466C18.9433 9.34466 19.7022 9.35309 20.2987 9.46732C22.0692 9.80637 23.593 10.8145 24.5999 12.2237L24.6301 12.266C24.8639 12.5932 25.0909 12.911 25.2954 13.1599C25.4967 13.405 25.8284 13.7799 26.317 14.0312C26.764 14.2613 27.1989 14.3272 27.5255 14.3539C27.8156 14.3776 28.1518 14.3775 28.4638 14.3774L28.5149 14.3774H28.9489C31.9202 14.3774 34.0138 14.3795 35.6364 14.5374C37.23 14.6925 38.1697 14.9839 38.8901 15.4386C39.7551 15.9847 40.4873 16.7169 41.0334 17.5819C41.4881 18.3023 41.7795 19.242 41.9346 20.8356C42.0925 22.4582 42.0946 24.5518 42.0946 27.5231C42.0946 30.4944 42.0925 32.588 41.9346 34.2106C41.7795 35.8042 41.4881 36.7439 41.0334 37.4642C40.4873 38.3293 39.7551 39.0615 38.8901 39.6075C38.1697 40.0623 37.23 40.3536 35.6364 40.5087C34.0138 40.6667 31.9202 40.6687 28.9489 40.6687H21.063C18.0917 40.6687 15.998 40.6667 14.3754 40.5087C12.7819 40.3536 11.8422 40.0623 11.1218 39.6075C10.2568 39.0615 9.52455 38.3293 8.9785 37.4642L7.39328 38.4649L8.97849 37.4642C8.52377 36.7439 8.23241 35.8042 8.0773 34.2106C7.91936 32.588 7.91729 30.4944 7.91729 27.5231L7.91733 27.005L7.91733 27.004L7.91729 26.6549V18.3258C7.91729 16.2809 7.92572 15.5221 8.03996 14.9255C8.56957 12.1599 10.7325 9.99694 13.4982 9.46732ZM16.8984 5.59539L16.6781 5.59536C14.9314 5.59504 13.7859 5.59484 12.793 5.78496C8.51879 6.60346 5.17609 9.94615 4.3576 14.2204C4.16747 15.2132 4.16768 16.3587 4.16799 18.1055L4.16802 18.3258V26.6549L4.16806 27.0042L4.16806 27.0052L4.16802 27.5231L4.16802 27.6211C4.168 30.472 4.16798 32.7483 4.34567 34.5738C4.52821 36.4492 4.91217 38.0463 5.80806 39.4656C6.65196 40.8024 7.78361 41.9341 9.12047 42.778C10.5397 43.6739 12.1368 44.0578 14.0122 44.2404C15.8377 44.4181 18.1139 44.418 20.9648 44.418H20.9649H21.063H28.9489H29.047H29.047C31.8979 44.418 34.1742 44.4181 35.9997 44.2404C37.8751 44.0578 39.4722 43.6739 40.8914 42.778C42.2283 41.9341 43.3599 40.8024 44.2038 39.4656C45.0997 38.0463 45.4837 36.4492 45.6662 34.5738C45.8439 32.7483 45.8439 30.4721 45.8439 27.6212V27.6212V27.5231V27.425V27.4249C45.8439 24.574 45.8439 22.2978 45.6662 20.4723C45.4837 18.5969 45.0997 16.9998 44.2038 15.5806C43.3599 14.2437 42.2283 13.1121 40.8914 12.2682C39.4722 11.3723 37.8751 10.9883 35.9997 10.8058C34.1741 10.6281 31.8979 10.6281 29.0469 10.6281L28.9489 10.6281H28.5149C28.3325 10.6281 28.1925 10.6281 28.0723 10.6262C27.9716 10.4926 27.8403 10.3096 27.6504 10.0439C26.0964 7.86903 23.7413 6.30917 21.0039 5.78496C20.011 5.59484 18.8655 5.59504 17.1188 5.59536L16.8984 5.59539ZM14.0784 22.6368C14.0784 21.9388 14.6442 21.3731 15.3421 21.3731H34.6699C35.3679 21.3731 35.9336 21.9388 35.9336 22.6368C35.9336 23.6721 36.7729 24.5114 37.8083 24.5114C38.8436 24.5114 39.6829 23.6721 39.6829 22.6368C39.6829 19.8682 37.4385 17.6238 34.6699 17.6238H15.3421C12.5736 17.6238 10.3292 19.8682 10.3292 22.6368C10.3292 23.6721 11.1685 24.5114 12.2038 24.5114C13.2391 24.5114 14.0784 23.6721 14.0784 22.6368Z" fill="#848DA0"/>
</svg>
